<svg width="66" height="66" viewBox="0 0 66 66" fill="none" xmlns="http://www.w3.org/2000/svg">
<rect width="66" height="66" rx="20" transform="matrix(4.37114e-08 1 1 -4.37114e-08 0 0)" fill="white"/>
<path d="M2.35033e-06 53.7692L5.34624e-07 12.2308C0.00609999 8.98884 1.29665 5.88144 3.58905 3.58905C5.88144 1.29665 8.98884 0.00609921 12.2308 -5.34624e-07L53.7692 -2.35033e-06C57.0112 0.00609711 60.1186 1.29665 62.411 3.58904C64.7034 5.88144 65.9939 8.98884 66 12.2308L66 53.7692C65.9939 57.0112 64.7034 60.1186 62.411 62.411C60.1186 64.7034 57.0112 65.9939 53.7692 66L12.2308 66C8.98885 65.9939 5.88144 64.7034 3.58905 62.411C1.29666 60.1186 0.00610209 57.0112 2.35033e-06 53.7692ZM37.2923 49.9846L34.1539 46.8462C33.5037 46.2013 33.06 45.3776 32.8793 44.4798C32.6986 43.5821 32.7891 42.6509 33.1392 41.8047C33.4893 40.9585 34.0832 40.2356 34.8454 39.7279C35.6075 39.2203 36.5035 38.9508 37.4192 38.9538L54.1731 38.9538C54.961 38.9538 55.7412 38.7987 56.4692 38.4971C57.1971 38.1956 57.8586 37.7536 58.4157 37.1965C58.9729 36.6393 59.4148 35.9779 59.7164 35.2499C60.0179 34.522 60.1731 33.7418 60.1731 32.9538C60.1731 32.1659 60.0179 31.3857 59.7164 30.6577C59.4148 29.9298 58.9729 29.2684 58.4157 28.7112C57.8586 28.1541 57.1971 27.7121 56.4692 27.4106C55.7412 27.109 54.961 26.9538 54.1731 26.9538L37.4654 26.9538C36.5644 26.9482 35.6848 26.6789 34.9351 26.1793C34.1853 25.6797 33.5982 24.9716 33.2461 24.1422C32.894 23.3129 32.7923 22.3986 32.9536 21.5122C33.1149 20.6258 33.5322 19.806 34.1539 19.1538L37.2462 16.0615C42.6923 10.2923 34.5462 2.13461 28.7654 7.56923L7.61539 28.7538C7.0558 29.3104 6.61173 29.972 6.30871 30.7007C6.0057 31.4294 5.8497 32.2108 5.8497 33C5.8497 33.7892 6.0057 34.5706 6.30871 35.2993C6.61173 36.028 7.0558 36.6897 7.61539 37.2462L28.8462 58.4769C34.6039 63.9115 42.7385 55.7538 37.2923 49.9846Z" fill="#FF9519"/>
</svg>
