<svg width="196" height="180" viewBox="0 0 196 180" fill="none" xmlns="http://www.w3.org/2000/svg">
<path opacity="0.1" d="M175.987 58.2154H162.664C166.764 54.2045 169.26 48.9085 169.26 43.1002C169.26 30.5819 157.679 20.4339 143.394 20.4339C137.154 20.4339 131.43 22.3708 126.962 25.5953V24.3077C126.962 20.3079 123.262 17.0653 118.697 17.0653H19.3317C14.7673 17.0653 11.0669 20.3079 11.0669 24.3077V111.377C11.0669 115.377 14.7673 118.62 19.3317 118.62H46.0843L62.7125 135.783C64.2072 137.324 66.2561 138.16 68.357 138.305V150.058C68.357 154.058 72.0574 157.301 76.6218 157.301H103.374L120.003 174.465C123.304 177.868 129.305 177.868 132.606 174.465L149.235 157.301L175.987 157.305C180.552 157.305 184.252 154.058 184.252 150.058V65.4578C184.252 61.4581 180.552 58.2154 175.987 58.2154Z" fill="#2626BB"/>
<path d="M184.252 55.5819V140.182C184.252 144.182 180.552 147.429 175.987 147.429L149.235 147.425L132.606 164.589C129.305 167.992 123.304 167.992 120.003 164.589L103.374 147.425H76.6217C72.0573 147.425 68.3569 144.182 68.3569 140.182V55.5819C68.3569 51.5821 72.0573 48.3395 76.6217 48.3395H175.987C180.552 48.3395 184.252 51.5821 184.252 55.5819Z" fill="white"/>
<path d="M168.619 65.6348V94.0078C168.619 96.2793 166.52 98.1228 163.923 98.1228H82.9518C80.3549 98.1228 78.2559 96.2793 78.2559 94.0078V65.6348C78.2559 63.3592 80.3549 61.5198 82.9518 61.5198H163.923C166.52 61.5198 168.619 63.3592 168.619 65.6348Z" fill="#6582FD"/>
<path d="M126.962 14.4318V101.501C126.962 105.501 123.262 108.748 118.697 108.748L91.9446 108.744L75.3164 125.907C72.0151 129.311 66.0137 129.311 62.7125 125.907L46.0843 108.744H19.3317C14.7673 108.744 11.0669 105.501 11.0669 101.501V14.4318C11.0669 10.432 14.7673 7.18933 19.3317 7.18933H118.697C123.262 7.18933 126.962 10.432 126.962 14.4318Z" fill="#6582FD"/>
<path d="M98.2658 88.6681C96.6621 88.6681 95.3618 87.5286 95.3618 86.1234V84.8321C95.3618 83.4268 96.6621 82.2874 98.2658 82.2874C99.8694 82.2874 101.17 83.4268 101.17 84.8321V86.1234C101.169 87.5286 99.869 88.6681 98.2658 88.6681Z" fill="white"/>
<path d="M112.574 88.6681C110.97 88.6681 109.67 87.5286 109.67 86.1234V84.8321C109.67 83.4268 110.97 82.2874 112.574 82.2874C114.178 82.2874 115.478 83.4268 115.478 84.8321V86.1234C115.478 87.5286 114.178 88.6681 112.574 88.6681Z" fill="white"/>
<path d="M105.42 98.1975C109.317 98.1975 112.848 96.3667 114.778 93.5315C115.563 92.3784 114.826 90.8839 113.347 90.5324C112.352 90.2958 111.274 90.6435 110.748 91.42C109.651 93.0377 107.639 94.0829 105.419 94.0829C103.199 94.0829 101.188 93.0377 100.091 91.42C99.5638 90.6435 98.4865 90.2958 97.4915 90.5324C96.0127 90.8839 95.2759 92.3784 96.0606 93.5315C97.9916 96.3663 101.522 98.1975 105.42 98.1975Z" fill="white"/>
<path d="M34.4593 69.3224C40.0783 69.3224 44.6335 65.3307 44.6335 60.4068C44.6335 55.4829 40.0783 51.4912 34.4593 51.4912C28.8403 51.4912 24.2852 55.4829 24.2852 60.4068C24.2852 65.3307 28.8403 69.3224 34.4593 69.3224Z" fill="white"/>
<path d="M90.4212 69.3224C96.0403 69.3224 100.595 65.3307 100.595 60.4068C100.595 55.4829 96.0403 51.4912 90.4212 51.4912C84.8022 51.4912 80.2471 55.4829 80.2471 60.4068C80.2471 65.3307 84.8022 69.3224 90.4212 69.3224Z" fill="white"/>
<path d="M52.3884 26.4312C45.3041 25.895 30.6416 26.8226 28.4618 43.2217C25.8837 62.6141 47.492 64.3807 52.3884 64.5329V26.4312Z" fill="#6582FD"/>
<path d="M72.4927 26.4313C79.5769 25.8952 94.2394 26.8227 96.4193 43.2218C98.9973 62.6142 77.3891 64.3808 72.4927 64.5331V26.4313Z" fill="#6582FD"/>
<path d="M62.4405 94.0469C49.1121 94.0469 37.942 85.2148 36.5773 73.5965L35.0286 60.4165C33.3555 46.177 46.1053 33.7953 62.4405 33.7953C78.7757 33.7953 91.5256 46.177 89.8524 60.4165L88.3037 73.5965C86.9391 85.2148 75.7689 94.0469 62.4405 94.0469Z" fill="white"/>
<path d="M40.4121 43.4767C40.4121 43.4767 50.6586 50.8689 73.0863 46.1313C90.4673 42.4599 91.2599 29.5095 90.7368 23.8674C90.6011 22.4058 89.236 21.2721 87.5638 21.2099C84.7932 21.1071 80.3433 20.6606 76.1433 19.0199C67.2272 15.537 60.1387 14.5218 51.3076 18.5558C34.7 26.1414 40.4121 43.4767 40.4121 43.4767Z" fill="#6582FD"/>
<path d="M78.5911 34.4608C79.8879 34.4608 80.9391 33.5397 80.9391 32.4033C80.9391 31.267 79.8879 30.3458 78.5911 30.3458C77.2944 30.3458 76.2432 31.267 76.2432 32.4033C76.2432 33.5397 77.2944 34.4608 78.5911 34.4608Z" fill="white"/>
<path d="M58.603 43.101C54.1677 43.101 50.4833 42.3303 48.6303 41.9427C47.3689 41.6789 46.5908 40.5691 46.8918 39.4638C47.1928 38.3585 48.4598 37.6762 49.7207 37.9404C63.1486 40.7501 69.327 36.9479 71.3575 35.6985C72.4183 35.0455 73.883 35.2698 74.6282 36.1997C75.3735 37.1297 75.1175 38.4128 74.0563 39.0659C68.9251 42.2237 63.336 43.101 58.603 43.101Z" fill="white"/>
<path d="M138.763 119.905H166.273C167.57 119.905 168.621 118.984 168.621 117.848C168.621 116.711 167.57 115.79 166.273 115.79H138.763C137.466 115.79 136.415 116.711 136.415 117.848C136.415 118.984 137.466 119.905 138.763 119.905Z" fill="#6582FD"/>
<path d="M138.763 128.293H166.273C167.57 128.293 168.621 127.371 168.621 126.235C168.621 125.099 167.57 124.177 166.273 124.177H138.763C137.466 124.177 136.415 125.099 136.415 126.235C136.415 127.371 137.466 128.293 138.763 128.293Z" fill="#6582FD"/>
<path d="M138.763 136.679H166.273C167.57 136.679 168.621 135.758 168.621 134.622C168.621 133.485 167.57 132.564 166.273 132.564H138.763C137.466 132.564 136.415 133.485 136.415 134.622C136.415 135.758 137.466 136.679 138.763 136.679Z" fill="#6582FD"/>
<path d="M90.5152 136.679H124.081C126.675 136.679 128.777 134.837 128.777 132.564V128.292C128.777 126.019 126.675 124.177 124.081 124.177H90.5152C87.9217 124.177 85.8193 126.019 85.8193 128.292V132.564C85.8193 134.837 87.9217 136.679 90.5152 136.679Z" fill="#6582FD"/>
<path d="M109.645 119.082C110.942 119.082 111.993 118.161 111.993 117.024C111.993 115.888 110.942 114.967 109.645 114.967C108.349 114.967 107.297 115.888 107.297 117.024C107.297 118.161 108.349 119.082 109.645 119.082Z" fill="#6582FD"/>
<path d="M117.058 119.082C118.355 119.082 119.406 118.161 119.406 117.024C119.406 115.888 118.355 114.967 117.058 114.967C115.761 114.967 114.71 115.888 114.71 117.024C114.71 118.161 115.761 119.082 117.058 119.082Z" fill="#6582FD"/>
<path d="M124.47 119.082C125.767 119.082 126.818 118.161 126.818 117.024C126.818 115.888 125.767 114.967 124.47 114.967C123.173 114.967 122.122 115.888 122.122 117.024C122.122 118.161 123.173 119.082 124.47 119.082Z" fill="#6582FD"/>
<path d="M147.515 87.0991L142.314 88.72C141.337 89.0245 140.316 88.3743 140.344 87.4657L140.495 82.6301L137.129 78.7962C136.497 78.0757 136.887 77.0234 137.882 76.7667L143.177 75.3988L146.298 71.4085C146.885 70.6588 148.147 70.6588 148.733 71.4085L151.854 75.3988L157.149 76.7667C158.145 77.0239 158.534 78.0761 157.902 78.7962L154.536 82.6301L154.688 87.4657C154.716 88.3743 153.695 89.0245 152.717 88.72L147.515 87.0991Z" fill="white"/>
<path d="M143.393 55.8908C157.679 55.8908 169.259 45.7428 169.259 33.2245C169.259 20.7063 157.679 10.5582 143.393 10.5582C129.108 10.5582 117.527 20.7063 117.527 33.2245C117.527 45.7428 129.108 55.8908 143.393 55.8908Z" fill="white"/>
<path d="M156.507 24.9821H153.95C152.654 24.9821 151.603 25.9034 151.603 27.0396C151.603 28.1757 152.654 29.0971 153.95 29.0971H154.159V39.4101C154.159 40.5463 155.21 41.4676 156.507 41.4676C157.803 41.4676 158.855 40.5463 158.855 39.4101V27.0396C158.855 25.903 157.804 24.9821 156.507 24.9821Z" fill="#6582FD"/>
<path d="M146.52 27.75H146.066L146.179 27.2932C146.456 26.183 145.653 25.0868 144.386 24.8444C143.12 24.6028 141.868 25.3061 141.592 26.4159L141.259 27.75H138.267L138.381 27.2932C138.657 26.183 137.855 25.0868 136.588 24.8444C135.322 24.6028 134.07 25.3061 133.793 26.4159L133.461 27.75H131.981C130.685 27.75 129.633 28.6713 129.633 29.8075C129.633 30.9437 130.685 31.865 131.981 31.865H132.436L131.759 34.5834H130.28C128.983 34.5834 127.932 35.5047 127.932 36.6409C127.932 37.777 128.983 38.6984 130.28 38.6984H130.734L130.62 39.1552C130.344 40.2654 131.146 41.3616 132.413 41.604C132.582 41.6361 132.751 41.6517 132.916 41.6517C133.996 41.6517 134.968 40.995 135.208 40.0325L135.54 38.6984H138.532L138.419 39.1552C138.142 40.2654 138.945 41.3616 140.212 41.604C140.381 41.6361 140.549 41.6517 140.715 41.6517C141.795 41.6517 142.767 40.995 143.006 40.0325L143.339 38.6984H144.818C146.115 38.6984 147.166 37.777 147.166 36.6409C147.166 35.5047 146.115 34.5834 144.818 34.5834H144.364L145.041 31.865H146.52C147.816 31.865 148.868 30.9437 148.868 29.8075C148.868 28.6713 147.817 27.75 146.52 27.75ZM139.557 34.5838H136.566L137.243 31.8654H140.234L139.557 34.5838Z" fill="#6582FD"/>
<path d="M175.987 46.282H167.33C170.054 42.4529 171.608 37.9585 171.608 33.2242C171.608 19.5916 158.951 8.50039 143.394 8.50039C138.114 8.50039 133.17 9.78098 128.94 12.0018C127.718 8.04856 123.59 5.13184 118.697 5.13184H19.3315C13.4795 5.13184 8.71875 9.30363 8.71875 14.4318V101.501C8.71875 106.629 13.4795 110.801 19.3315 110.801H44.9975L60.9237 127.24C62.2775 128.635 64.0488 129.629 66.0093 130.136V140.182C66.0093 145.311 70.7701 149.482 76.6221 149.482H102.288L118.214 165.921C120.234 168.004 123.183 169.198 126.305 169.198C129.426 169.198 132.375 168.004 134.396 165.92L150.321 149.482L175.987 149.486C181.839 149.486 186.6 145.313 186.6 140.182V55.5819C186.6 50.4538 181.839 46.282 175.987 46.282ZM181.904 140.182C181.904 143.044 179.25 145.371 175.988 145.371L149.235 145.367H149.234C148.545 145.367 147.891 145.633 147.444 146.093L130.817 163.256C129.691 164.417 128.046 165.084 126.304 165.084C124.563 165.084 122.918 164.417 121.793 163.257L105.164 146.094C104.718 145.633 104.064 145.368 103.374 145.368H76.6216C73.3589 145.368 70.7048 143.042 70.7048 140.183V130.399C73.1833 130.05 75.4542 128.942 77.1058 127.24L93.031 110.806H118.697C124.549 110.806 129.31 106.632 129.31 101.502V91.5973C129.31 90.4611 128.258 89.5398 126.962 89.5398C125.665 89.5398 124.614 90.4611 124.614 91.5973V101.502C124.614 104.363 121.96 106.691 118.697 106.691H91.9444C91.255 106.691 90.6009 106.957 90.1548 107.417L73.527 124.576C72.4005 125.737 70.7555 126.403 69.0142 126.403C67.273 126.403 65.628 125.737 64.5024 124.577L47.8742 107.413C47.4281 106.953 46.7735 106.687 46.0841 106.687H19.3315C16.0688 106.687 13.4147 104.362 13.4147 101.503V14.4318C13.4147 11.5727 16.0688 9.24685 19.3315 9.24685H118.697C121.96 9.24685 124.614 11.5727 124.614 14.4318V14.7939C118.829 19.3245 115.18 25.9069 115.18 33.2242C115.18 40.4032 118.769 47.0564 124.614 51.6496V79.4407C124.614 80.5769 125.665 81.4982 126.962 81.4982C128.258 81.4982 129.31 80.5769 129.31 79.4407V54.6404C131.295 55.6473 133.442 56.4514 135.717 57.0143C136.965 57.3229 138.263 56.6868 138.615 55.593C138.967 54.4992 138.241 53.3627 136.993 53.054C126.914 50.5607 119.876 42.4064 119.876 33.2246C119.876 21.861 130.426 12.6158 143.394 12.6158C156.361 12.6158 166.912 21.8606 166.912 33.2246C166.912 42.4879 159.796 50.6616 149.607 53.1009C148.356 53.4005 147.619 54.5321 147.961 55.628C148.246 56.5427 149.192 57.1439 150.224 57.1439C150.429 57.1439 150.638 57.1201 150.845 57.0707C155.85 55.8724 160.235 53.5194 163.672 50.3974H175.987C179.25 50.3974 181.904 52.7232 181.904 55.5823V140.182Z" fill="#2626BB"/>
<path d="M98.224 51.8338C99.0011 49.1903 99.1847 46.239 98.7513 42.982C98.0502 37.7119 96.062 33.4714 92.8439 30.3518C93.2834 27.7474 93.2331 25.3903 93.0763 23.7003C92.8457 21.2144 90.518 19.2602 87.6624 19.154C84.9355 19.0528 80.8899 18.622 77.0985 17.1405C68.1133 13.6304 60.1035 12.2173 50.2214 16.7307C45.5744 18.8532 42.0961 21.8996 39.8928 25.7158C34.2032 27.5976 27.5688 32.1307 26.1276 42.9816C25.6942 46.2386 25.8778 49.1903 26.655 51.8334C23.7092 53.8958 21.937 57.0475 21.937 60.4041C21.937 66.3075 27.2824 71.1349 33.9524 71.3678L34.2384 73.808C35.7336 86.5176 47.857 96.1019 62.4392 96.1019C77.0215 96.1019 89.1449 86.5176 90.6401 73.8072L90.926 71.3678C97.5966 71.1349 102.941 66.3075 102.941 60.4041C102.942 57.0479 101.17 53.8967 98.224 51.8338ZM94.0873 43.4585C94.6574 47.7455 93.9704 51.3519 92.0507 54.2407C91.3468 49.8977 89.3966 45.7691 86.3696 42.2347C88.7138 40.1747 90.2836 37.8403 91.3205 35.4923C92.741 37.6621 93.6703 40.3249 94.0873 43.4585ZM52.3923 20.3803C60.6694 16.5998 67.0182 17.708 75.1868 20.8992C79.6545 22.6444 84.3292 23.1493 87.4642 23.2653C87.9568 23.2834 88.3574 23.6143 88.3964 24.0336C88.965 30.1679 87.6605 40.9356 72.5354 44.1305C54.5572 47.9282 44.8535 43.5408 42.4741 42.2269C41.6655 39.1015 39.2983 26.3611 52.3923 20.3803ZM30.7921 43.4581C31.5265 37.9275 33.8454 33.8907 37.697 31.3921C37.5312 32.125 37.3913 32.871 37.2969 33.6409C36.7921 37.7576 37.4532 41.3216 37.8684 43.0104C35.1898 46.3888 33.481 50.2318 32.8334 54.2477C30.91 51.3577 30.2215 47.7488 30.7921 43.4581ZM26.6334 60.4046C26.6334 58.7524 27.3218 57.1792 28.5132 55.9554C29.5787 57.6421 30.9677 59.1565 32.6817 60.4918C32.6869 60.5371 32.6888 60.5823 32.6939 60.6276L33.4645 67.2034C29.6186 66.7734 26.6334 63.8916 26.6334 60.4046ZM87.514 60.207L85.969 73.3866C84.7213 83.991 74.6059 91.9873 62.4397 91.9873C50.2735 91.9873 40.1576 83.9906 38.9104 73.3874L37.3654 60.2058C36.7864 55.2929 38.0872 50.4141 41.0381 46.2691C43.9242 47.6682 49.7809 49.7763 58.868 49.7763C63.0859 49.7763 68.0006 49.322 73.6362 48.1315C77.2919 47.3591 80.2785 46.2127 82.7176 44.8222C85.9118 48.6048 87.6525 53.1807 87.6525 57.8985C87.6521 58.6433 87.6056 59.4207 87.514 60.207ZM91.4144 67.203L92.1855 60.6255C92.1907 60.5807 92.1925 60.5366 92.1972 60.4918C93.9112 59.1565 95.3008 57.6421 96.3658 55.9554C97.5576 57.1796 98.2456 58.7524 98.2456 60.4046C98.246 63.8916 95.2608 66.7734 91.4144 67.203Z" fill="#2626BB"/>
<path d="M52.0848 61.7936C52.0848 60.3883 50.7845 59.2493 49.1808 59.2493C47.5772 59.2493 46.2773 60.3887 46.2773 61.7936V63.0849C46.2773 64.4901 47.5776 65.6296 49.1808 65.6296C50.7845 65.6296 52.0848 64.4901 52.0848 63.0849V61.7936Z" fill="#2626BB"/>
<path d="M75.6994 59.2493C74.0957 59.2493 72.7954 60.3887 72.7954 61.7936V63.0849C72.7954 64.4901 74.0957 65.6296 75.6994 65.6296C77.303 65.6296 78.6028 64.4901 78.6028 63.0849V61.7936C78.6028 60.3883 77.303 59.2493 75.6994 59.2493Z" fill="#2626BB"/>
<path d="M71.3011 73.2533C70.0482 72.9566 68.7597 73.6039 68.4202 74.7005C67.689 77.0634 65.2298 78.7135 62.4395 78.7135C59.6491 78.7135 57.1904 77.0634 56.4592 74.7005C56.1197 73.6039 54.8297 72.9558 53.5787 73.2533C52.3273 73.5508 51.5877 74.6808 51.9272 75.7774C53.212 79.9291 57.5346 82.8285 62.4399 82.8285C67.3448 82.8285 71.6679 79.9291 72.9527 75.7774C73.2922 74.6808 72.5526 73.5508 71.3011 73.2533Z" fill="#2626BB"/>
<path d="M166.273 107.403H157.547C156.25 107.403 155.199 108.324 155.199 109.46C155.199 110.596 156.25 111.518 157.547 111.518H166.273C167.57 111.518 168.621 110.596 168.621 109.46C168.621 108.324 167.57 107.403 166.273 107.403Z" fill="#2626BB"/>
<path d="M188.473 36.7824C187.177 36.7824 186.126 35.8611 186.126 34.7249C186.126 33.4768 184.967 32.4617 183.543 32.4617C182.246 32.4617 181.195 31.5403 181.195 30.4041C181.195 29.268 182.246 28.3466 183.543 28.3466C184.967 28.3466 186.126 27.3315 186.126 26.0834C186.126 24.9472 187.177 24.0259 188.473 24.0259C189.77 24.0259 190.821 24.9472 190.821 26.0834C190.821 27.3315 191.98 28.3466 193.404 28.3466C194.701 28.3466 195.752 29.268 195.752 30.4041C195.752 31.5403 194.701 32.4617 193.404 32.4617C191.98 32.4617 190.821 33.4768 190.821 34.7249C190.821 35.8615 189.77 36.7824 188.473 36.7824Z" fill="#6582FD"/>
<path d="M24.2855 137.541C22.989 137.541 21.9375 136.619 21.9375 135.483C21.9375 134.235 20.7791 133.22 19.3548 133.22C18.0583 133.22 17.0068 132.299 17.0068 131.163C17.0068 130.026 18.0583 129.105 19.3548 129.105C20.7791 129.105 21.9375 128.09 21.9375 126.842C21.9375 125.706 22.989 124.784 24.2855 124.784C25.582 124.784 26.6335 125.706 26.6335 126.842C26.6335 128.09 27.7919 129.105 29.2162 129.105C30.5127 129.105 31.5642 130.026 31.5642 131.163C31.5642 132.299 30.5127 133.22 29.2162 133.22C27.7919 133.22 26.6335 134.235 26.6335 135.483C26.6335 136.619 25.582 137.541 24.2855 137.541Z" fill="#6582FD"/>
<path d="M95.743 180C94.4465 180 93.3951 179.079 93.3951 177.942C93.3951 176.694 92.2366 175.679 90.8123 175.679C89.5158 175.679 88.4644 174.758 88.4644 173.622C88.4644 172.486 89.5158 171.564 90.8123 171.564C92.2366 171.564 93.3951 170.549 93.3951 169.301C93.3951 168.165 94.4465 167.243 95.743 167.243C97.0396 167.243 98.091 168.165 98.091 169.301C98.091 170.549 99.2495 171.564 100.674 171.564C101.97 171.564 103.022 172.486 103.022 173.622C103.022 174.758 101.97 175.679 100.674 175.679C99.2495 175.679 98.091 176.694 98.091 177.942C98.091 179.079 97.0396 180 95.743 180Z" fill="#6582FD"/>
<path d="M179.884 13.5662C179.283 13.5662 178.682 13.3654 178.224 12.9637L173.293 8.64298C172.376 7.83932 172.376 6.53651 173.293 5.73326L178.224 1.4125C179.141 0.609246 180.627 0.609246 181.544 1.4125L186.475 5.73326C187.392 6.53692 187.392 7.83973 186.475 8.64298L181.544 12.9637C181.086 13.3654 180.485 13.5662 179.884 13.5662ZM178.274 7.18792L179.884 8.59895L181.494 7.18792L179.884 5.77688L178.274 7.18792Z" fill="#6582FD"/>
<path d="M7.52706 158.994C6.92598 158.994 6.32538 158.793 5.86659 158.392L0.93588 154.071C0.018769 153.267 0.018769 151.964 0.93588 151.161L5.86659 146.84C6.7837 146.037 8.26995 146.037 9.18707 146.84L14.1178 151.161C15.0349 151.965 15.0349 153.268 14.1178 154.071L9.18707 158.392C8.72921 158.793 8.12814 158.994 7.52706 158.994ZM5.9173 152.616L7.52753 154.027L9.13776 152.616L7.52753 151.205L5.9173 152.616Z" fill="#6582FD"/>
</svg>
