<svg width="136" height="42" viewBox="0 0 136 42" fill="none" xmlns="http://www.w3.org/2000/svg">
<g clip-path="url(#clip0_111_616)">
<rect width="136" height="42" rx="11.0509" fill="#140859"/>
<path d="M39.1887 21C39.1887 21.977 39.5768 22.9139 40.2676 23.6047C40.9584 24.2955 41.8954 24.6836 42.8723 24.6836C43.8493 24.6836 44.7863 24.2955 45.4771 23.6047C46.1679 22.9139 46.556 21.977 46.556 21C46.556 20.023 46.1679 19.0861 45.4771 18.3953C44.7863 17.7045 43.8493 17.3164 42.8723 17.3164C41.8954 17.3164 40.9584 17.7045 40.2676 18.3953C39.5768 19.0861 39.1887 20.023 39.1887 21Z" stroke="white" stroke-width="2.45575" stroke-linecap="round" stroke-linejoin="round"/>
<path d="M31.8215 13.6328C31.8215 12.6558 32.2096 11.7189 32.9004 11.028C33.5913 10.3372 34.5282 9.94913 35.5052 9.94913H42.8724C43.8494 9.94913 44.7863 10.3372 45.4771 11.028C46.1679 11.7189 46.556 12.6558 46.556 13.6328C46.556 14.6097 46.1679 15.5467 45.4771 16.2375C44.7863 16.9283 43.8494 17.3164 42.8724 17.3164H35.5052C34.5282 17.3164 33.5913 16.9283 32.9004 16.2375C32.2096 15.5467 31.8215 14.6097 31.8215 13.6328Z" stroke="white" stroke-width="2.45575" stroke-linecap="round" stroke-linejoin="round"/>
<path d="M35.5052 17.3164C34.5282 17.3164 33.5913 17.7045 32.9004 18.3953C32.2096 19.0861 31.8215 20.023 31.8215 21C31.8215 21.977 32.2096 22.9139 32.9004 23.6047C33.5913 24.2955 34.5282 24.6836 35.5052 24.6836M35.5052 24.6836H39.1888M35.5052 24.6836C34.7766 24.6836 34.0644 24.8997 33.4586 25.3044C32.8529 25.7092 32.3807 26.2845 32.1019 26.9576C31.8231 27.6307 31.7502 28.3714 31.8923 29.0859C32.0344 29.8005 32.3853 30.4568 32.9004 30.972C33.4156 31.4871 34.072 31.838 34.7865 31.9801C35.5011 32.1222 36.2417 32.0493 36.9148 31.7705C37.5879 31.4917 38.1632 31.0195 38.568 30.4138C38.9727 29.808 39.1888 29.0958 39.1888 28.3673V9.94913" stroke="white" stroke-width="2.45575" stroke-linecap="round" stroke-linejoin="round"/>
<path d="M71.621 9.40335C71.621 9.71169 71.5388 9.95322 71.3743 10.1279C71.2099 10.3027 71.0043 10.4311 70.7576 10.5134C70.511 10.5956 70.2489 10.647 69.9714 10.6675C69.6939 10.6881 69.4421 10.6984 69.2159 10.6984C68.7637 10.6984 68.3115 10.6932 67.8592 10.683C67.407 10.6727 66.9548 10.6675 66.5026 10.6675C66.2867 10.6675 66.0709 10.6675 65.855 10.6675C65.6392 10.6675 65.4234 10.6778 65.2075 10.6984C65.1253 10.8731 65.0739 11.053 65.0534 11.238C65.0328 11.4127 65.0225 11.5926 65.0225 11.7776C65.0225 12.7437 65.0585 13.6995 65.1304 14.6451C65.2024 15.5907 65.2795 16.5465 65.3617 17.5127C65.9784 17.4613 66.5951 17.3996 67.2117 17.3277C67.8284 17.2557 68.4554 17.1735 69.0926 17.081C69.1748 17.081 69.2519 17.0759 69.3239 17.0656C69.3958 17.0553 69.4729 17.0502 69.5551 17.0502C69.9662 17.0502 70.1718 17.2763 70.1718 17.7285C70.1718 17.8518 70.1564 17.9752 70.1255 18.0985C70.105 18.2219 70.069 18.3452 70.0176 18.4685C69.9457 18.6741 69.8275 18.8283 69.663 18.931C69.4986 19.0235 69.3136 19.0903 69.108 19.1315C68.9025 19.1623 68.6866 19.1777 68.4605 19.1777C68.2447 19.1674 68.0545 19.1674 67.8901 19.1777L65.485 19.2702C65.5467 20.2466 65.6135 21.2127 65.6855 22.1686C65.7574 23.1244 65.8345 24.0906 65.9167 25.067C65.9989 25.807 66.0657 26.5522 66.1171 27.3024C66.1788 28.0527 66.2662 28.7979 66.3792 29.5379V29.7846C66.3792 30.021 66.3124 30.1803 66.1788 30.2625C66.0452 30.3344 65.8756 30.3704 65.67 30.3704C65.2898 30.3704 64.93 30.3088 64.5909 30.1854C64.3647 30.1032 64.1952 30.0056 64.0821 29.8925C63.969 29.7692 63.8868 29.6355 63.8354 29.4917C63.7943 29.3375 63.7686 29.173 63.7583 28.9983C63.7481 28.8236 63.7378 28.6334 63.7275 28.4279C63.635 26.8759 63.5322 25.3342 63.4192 23.8028C63.3061 22.2611 63.2033 20.7091 63.1108 19.1469C63.0492 17.9957 62.9823 16.8549 62.9104 15.7243C62.8385 14.5937 62.8025 13.4529 62.8025 12.3017C62.8025 11.6953 62.8385 11.1814 62.9104 10.76C62.9926 10.3284 63.1417 9.97892 63.3575 9.71169C63.5733 9.44446 63.8817 9.24918 64.2825 9.12584C64.6834 9.00251 65.2075 8.94084 65.855 8.94084C66.5231 8.94084 67.186 8.94598 67.8438 8.95626C68.5016 8.96654 69.1646 8.97168 69.8326 8.97168C70.069 8.97168 70.2951 8.96654 70.511 8.95626C70.7268 8.9357 70.9426 8.95112 71.1585 9.00251C71.2818 9.02306 71.3897 9.05904 71.4822 9.11043C71.5747 9.15154 71.621 9.24918 71.621 9.40335ZM73.3014 17.4048C73.3014 17.5795 73.2603 17.708 73.1781 17.7902C73.1062 17.8621 72.9674 17.8981 72.7618 17.8981C72.6693 17.8981 72.5255 17.8878 72.3302 17.8673C72.1349 17.8364 71.9345 17.7953 71.7289 17.7439C71.5336 17.6925 71.3589 17.6206 71.2047 17.5281C71.0608 17.4356 70.9889 17.3225 70.9889 17.1889C70.9889 17.1478 71.0043 17.0347 71.0351 16.8497C71.066 16.6545 71.102 16.4489 71.1431 16.2331C71.1945 16.0172 71.2356 15.8219 71.2664 15.6472C71.3075 15.4725 71.3383 15.3749 71.3589 15.3543V15.3697C71.4103 15.2875 71.472 15.2361 71.5439 15.2155C71.6159 15.195 71.6878 15.1847 71.7597 15.1847C71.8522 15.1847 71.9704 15.2001 72.1143 15.231C72.2685 15.2515 72.4175 15.2875 72.5614 15.3389C72.7156 15.38 72.8543 15.4365 72.9777 15.5085C73.101 15.5804 73.1781 15.6575 73.2089 15.7397C73.2398 15.8219 73.2552 15.935 73.2552 16.0789C73.2655 16.2125 73.2655 16.3358 73.2552 16.4489C73.2552 16.49 73.25 16.5414 73.2398 16.6031C73.2398 16.6545 73.2398 16.6956 73.2398 16.7264C73.2398 16.7778 73.2398 16.8292 73.2398 16.8806C73.25 16.932 73.2603 16.9834 73.2706 17.0347C73.2809 17.0861 73.286 17.1427 73.286 17.2043C73.2963 17.266 73.3014 17.3328 73.3014 17.4048ZM73.8719 29.6921C73.8719 29.9285 73.8153 30.0981 73.7023 30.2008C73.5995 30.2933 73.4299 30.3396 73.1935 30.3396C73.0702 30.3396 72.9314 30.3242 72.7773 30.2933C72.6334 30.2625 72.4895 30.2214 72.3456 30.17C72.2017 30.1083 72.0681 30.0364 71.9447 29.9542C71.8214 29.8719 71.7289 29.7794 71.6672 29.6767C71.6261 29.615 71.5902 29.4248 71.5593 29.1062C71.5285 28.7876 71.5028 28.3919 71.4822 27.9191C71.472 27.4463 71.4565 26.917 71.436 26.3312C71.4257 25.7453 71.4154 25.1543 71.4052 24.5582C71.4052 23.9621 71.4052 23.3814 71.4052 22.8161C71.4052 22.2508 71.4052 21.7575 71.4052 21.3361V20.149C71.4052 20.0462 71.4052 19.9434 71.4052 19.8406C71.4154 19.7379 71.436 19.6505 71.4668 19.5785C71.5079 19.4963 71.5645 19.4295 71.6364 19.3781C71.7186 19.3267 71.8317 19.301 71.9756 19.301C72.4278 19.301 72.7567 19.4295 72.9623 19.6865C73.1781 19.9331 73.3117 20.2672 73.3631 20.6886C73.4145 21.3155 73.4505 21.9425 73.471 22.5694C73.5019 23.1861 73.5276 23.8131 73.5481 24.4503C73.5687 25.0259 73.5841 25.5963 73.5944 26.1616C73.6149 26.7166 73.6509 27.2716 73.7023 27.8266C73.7126 27.9397 73.7228 28.0476 73.7331 28.1504C73.7434 28.2532 73.7588 28.3559 73.7794 28.4587C73.7999 28.6643 73.8205 28.8698 73.841 29.0754C73.8616 29.2707 73.8719 29.4762 73.8719 29.6921ZM83.1066 26.547C83.1066 26.6498 83.0758 26.7731 83.0141 26.917C82.9627 27.0506 82.8908 27.1945 82.7983 27.3487C82.7161 27.4926 82.6236 27.6416 82.5208 27.7958C82.418 27.95 82.3204 28.0887 82.2279 28.212L81.9966 28.5358L81.7654 28.9366L81.5649 29.3067C81.5752 29.5122 81.5906 29.7332 81.6112 29.9696C81.6317 30.206 81.6523 30.4321 81.6729 30.6479C81.7859 31.7066 81.8835 32.7857 81.9658 33.8855C82.0583 34.9852 82.1045 36.0644 82.1045 37.1231C82.1045 37.6883 82.0583 38.2588 81.9658 38.8343C81.8733 39.4202 81.6985 39.9444 81.4416 40.4069C81.1949 40.8797 80.8506 41.2651 80.4087 41.5631C79.9667 41.8612 79.4014 42.0102 78.7128 42.0102C78.24 42.0102 77.8392 41.9229 77.5103 41.7481C77.1814 41.5734 76.9141 41.337 76.7086 41.039C76.5133 40.7512 76.3694 40.412 76.2769 40.0214C76.1844 39.6309 76.1382 39.2249 76.1382 38.8035C76.1382 37.971 76.2358 37.1282 76.4311 36.2751C76.6264 35.422 76.8782 34.5793 77.1865 33.7467C77.5051 32.9142 77.8649 32.0971 78.2657 31.2954C78.6665 30.504 79.0725 29.7435 79.4836 29.0137C79.4836 28.9932 79.4836 28.9726 79.4836 28.9521C79.4836 28.9212 79.4785 28.875 79.4682 28.8133C79.3346 29.06 79.1804 29.3169 79.0057 29.5842C78.8413 29.8411 78.6511 30.0724 78.4353 30.2779C78.2297 30.4835 77.9985 30.6531 77.7415 30.7867C77.4949 30.9203 77.2173 30.9871 76.909 30.9871C76.4773 30.9871 76.1176 30.8843 75.8298 30.6788C75.542 30.4732 75.3108 30.2111 75.1361 29.8925C74.9716 29.5739 74.8534 29.2244 74.7815 28.8441C74.7095 28.4639 74.6735 28.1041 74.6735 27.765C74.6735 27.3744 74.6941 26.989 74.7352 26.6087C74.7866 26.2284 74.8431 25.8584 74.9048 25.4987C75.0076 24.9231 75.1361 24.3013 75.2902 23.6332C75.4547 22.9549 75.6551 22.2868 75.8915 21.629C76.1279 20.9609 76.4002 20.334 76.7086 19.7481C77.0272 19.1623 77.3972 18.6638 77.8186 18.2527L77.9419 18.1448C78.0756 18.0112 78.2297 17.8827 78.4045 17.7593C78.5792 17.6257 78.759 17.5589 78.944 17.5589C79.0571 17.5589 79.1547 17.5898 79.237 17.6514C79.3295 17.7131 79.4066 17.7953 79.4682 17.8981C79.5299 17.9906 79.5761 18.0934 79.607 18.2064C79.6481 18.3195 79.6686 18.4274 79.6686 18.5302C79.6686 18.6535 79.6224 18.7871 79.5299 18.931H79.5607C80.1877 18.931 80.6091 19.2188 80.8249 19.7944C80.938 19.8972 81.0202 20.0205 81.0716 20.1644C81.1333 20.3083 81.1641 20.4625 81.1641 20.6269C81.1641 20.7091 81.159 20.8016 81.1487 20.9044C81.1384 20.9969 81.123 21.0843 81.1024 21.1665C81.0819 21.259 81.0664 21.3464 81.0562 21.4286C81.0459 21.5108 81.0408 21.5879 81.0408 21.6598C81.0408 21.8962 81.0459 22.1892 81.0562 22.5386C81.0664 22.8881 81.0819 23.2529 81.1024 23.6332C81.123 24.0135 81.1435 24.3886 81.1641 24.7586C81.1949 25.1184 81.2206 25.4319 81.2412 25.6991C81.3131 25.6066 81.3953 25.5244 81.4878 25.4524C81.5906 25.3805 81.7088 25.3445 81.8424 25.3445C81.9555 25.3445 82.084 25.3856 82.2279 25.4678C82.382 25.5501 82.5208 25.6528 82.6441 25.7762C82.7777 25.8995 82.8857 26.0331 82.9679 26.177C83.0604 26.3106 83.1066 26.434 83.1066 26.547ZM78.867 20.1952C78.867 20.1336 78.867 20.0668 78.867 19.9948C78.8772 19.9229 78.8927 19.8458 78.9132 19.7636L78.8053 19.9023C78.7231 19.9948 78.646 20.0822 78.574 20.1644C78.5021 20.2466 78.4353 20.334 78.3736 20.4265C78.1064 20.817 77.87 21.3258 77.6644 21.9528C77.4692 22.5694 77.3047 23.2221 77.1711 23.9107C77.0375 24.5891 76.9347 25.2571 76.8628 25.9149C76.8011 26.5727 76.7703 27.138 76.7703 27.6108C76.7703 27.8472 76.7754 28.0836 76.7857 28.32C76.796 28.5564 76.8473 28.7876 76.9398 29.0137C77.0837 28.8596 77.2019 28.6951 77.2944 28.5204C77.3869 28.3354 77.4743 28.1452 77.5565 27.95C77.7826 27.4463 77.9779 26.8605 78.1424 26.1924C78.3068 25.5244 78.4404 24.8357 78.5432 24.1266C78.646 23.4174 78.7231 22.7236 78.7745 22.0453C78.8259 21.3566 78.8567 20.74 78.867 20.1952ZM80.0387 36.6605C80.0387 35.9616 80.0232 35.3039 79.9924 34.6872C79.9616 34.0808 79.9153 33.4281 79.8536 32.7292C79.6686 33.1712 79.4785 33.644 79.2832 34.1476C79.0982 34.6615 78.9338 35.1754 78.7899 35.6893C78.646 36.2135 78.5278 36.7325 78.4353 37.2464C78.3428 37.7603 78.2965 38.2485 78.2965 38.711V38.8189C78.2965 39.0553 78.312 39.3071 78.3428 39.5744C78.3736 39.8519 78.4713 40.078 78.6357 40.2527H78.8053C79.0109 40.2527 79.1804 40.1808 79.3141 40.0369C79.4579 39.9032 79.5761 39.7285 79.6686 39.5127C79.7611 39.2968 79.8331 39.0553 79.8845 38.7881C79.9359 38.5209 79.9718 38.2536 79.9924 37.9864C80.013 37.7192 80.0232 37.4674 80.0232 37.231C80.0335 36.9946 80.0387 36.8044 80.0387 36.6605ZM86.0667 30.2933C86.0667 30.5297 85.9947 30.6839 85.8508 30.7558C85.7172 30.8278 85.5528 30.8638 85.3575 30.8638C85.1828 30.8638 85.0081 30.8483 84.8333 30.8175C84.6689 30.797 84.5096 30.7507 84.3554 30.6788C84.2115 30.6068 84.083 30.5092 83.97 30.3858C83.8672 30.2625 83.7953 30.1032 83.7541 29.9079C83.6103 29.2912 83.528 28.69 83.5075 28.1041C83.4869 27.508 83.4766 26.8965 83.4766 26.2695V24.3732C83.4766 23.5099 83.5126 22.6157 83.5846 21.6907C83.6565 20.7554 83.7336 19.8561 83.8158 18.9927C83.8158 18.9619 83.8209 18.9259 83.8312 18.8848C83.8415 18.8437 83.8466 18.8128 83.8466 18.7923C83.8569 18.6792 83.8723 18.5559 83.8929 18.4223C83.9135 18.2887 83.9443 18.1705 83.9854 18.0677C84.0368 17.9546 84.1036 17.8621 84.1858 17.7902C84.2783 17.7182 84.3965 17.6823 84.5404 17.6823C84.7049 17.6823 84.859 17.7182 85.0029 17.7902C85.1571 17.8518 85.2907 17.9392 85.4038 18.0523C85.5168 18.155 85.6042 18.2835 85.6658 18.4377C85.7378 18.5919 85.7738 18.7512 85.7738 18.9156C85.7738 19.1212 85.7635 19.337 85.7429 19.5631C85.7327 19.779 85.7172 19.9897 85.6967 20.1952C85.6761 20.3391 85.6607 20.447 85.6504 20.519C85.6504 20.5909 85.6453 20.7091 85.635 20.8736C85.7583 20.6577 85.8971 20.4419 86.0513 20.2261C86.2157 19.9999 86.3956 19.8047 86.5909 19.6402C86.7861 19.4655 86.9968 19.3267 87.223 19.224C87.4594 19.1109 87.7112 19.0544 87.9784 19.0544C88.2456 19.0544 88.4666 19.1006 88.6413 19.1931C88.816 19.2753 88.9548 19.3935 89.0576 19.5477C89.1604 19.6916 89.2323 19.8663 89.2734 20.0719C89.3145 20.2774 89.3351 20.4933 89.3351 20.7194C89.3351 20.8633 89.3299 21.002 89.3197 21.1357C89.3197 21.2693 89.3145 21.4029 89.3042 21.5365C89.294 21.6701 89.2837 21.8037 89.2734 21.9373C89.2734 22.0607 89.2734 22.1943 89.2734 22.3382C89.2734 22.6054 89.2786 22.8624 89.2888 23.109C89.3094 23.3454 89.3299 23.5972 89.3505 23.8645C89.4533 23.5253 89.5766 23.1399 89.7205 22.7082C89.8747 22.2765 90.0494 21.8346 90.2447 21.3823C90.4502 20.9301 90.6712 20.4881 90.9076 20.0565C91.1543 19.6145 91.4164 19.224 91.6939 18.8848C91.9817 18.5456 92.29 18.2732 92.6189 18.0677C92.9478 17.8518 93.2921 17.7439 93.6518 17.7439C94.2171 17.7439 94.6128 17.9084 94.8389 18.2373C95.0753 18.5662 95.1935 18.9876 95.1935 19.5015C95.1935 19.6454 95.1884 19.7995 95.1781 19.964C95.1678 20.1181 95.1524 20.2672 95.1319 20.4111C95.0805 20.9661 95.0394 21.5365 95.0085 22.1223C94.988 22.7082 94.9777 23.2786 94.9777 23.8336V24.1266C94.9777 24.846 95.0085 25.5244 95.0702 26.1616C95.1319 26.7988 95.2552 27.472 95.4402 28.1812L95.5635 28.5975C95.6046 28.7414 95.6509 28.9007 95.7023 29.0754C95.764 29.2501 95.8153 29.4197 95.8565 29.5842C95.8976 29.7486 95.9335 29.9028 95.9644 30.0467C95.9952 30.1906 96.0106 30.3036 96.0106 30.3858C96.0106 30.6017 95.9335 30.7456 95.7794 30.8175C95.6252 30.8895 95.4659 30.9254 95.3014 30.9254C95.1987 30.9254 95.0805 30.9203 94.9469 30.91C94.8132 30.91 94.6796 30.8946 94.546 30.8638C94.4227 30.8432 94.2993 30.8072 94.176 30.7558C94.063 30.7045 93.9705 30.6376 93.8985 30.5554V30.5708C93.806 30.4783 93.7392 30.3653 93.6981 30.2317C93.657 30.0981 93.6261 29.9644 93.6056 29.8308L93.5747 29.6921C93.4309 29.1371 93.3075 28.6386 93.2047 28.1966C93.1122 27.7547 93.0352 27.3127 92.9735 26.8708C92.9118 26.4288 92.8656 25.9714 92.8347 25.4987C92.8142 25.0259 92.8039 24.4811 92.8039 23.8645C92.8039 23.3403 92.8245 22.8058 92.8656 22.2611C92.917 21.7164 92.9683 21.1819 93.0197 20.6577C93.0197 20.6063 93.0197 20.5498 93.0197 20.4881C93.03 20.4162 93.0403 20.3545 93.0506 20.3031C92.66 20.9095 92.3157 21.5776 92.0176 22.3073C91.7299 23.0268 91.4678 23.7668 91.2314 24.5274C91.0053 25.288 90.8048 26.0537 90.6301 26.8245C90.4657 27.5851 90.3166 28.3097 90.183 28.9983C90.183 29.0086 90.2036 29.0703 90.2447 29.1833C90.2961 29.2861 90.3423 29.4094 90.3834 29.5533C90.4348 29.6869 90.4811 29.8206 90.5222 29.9542C90.5633 30.0775 90.5839 30.1597 90.5839 30.2008C90.5839 30.4372 90.5068 30.5811 90.3526 30.6325C90.1984 30.6839 90.0391 30.7096 89.8747 30.7096C89.7513 30.7096 89.6177 30.7045 89.4738 30.6942C89.3299 30.6839 89.1861 30.6582 89.0422 30.6171C88.9085 30.576 88.7801 30.5195 88.6567 30.4475C88.5437 30.3858 88.4512 30.2933 88.3792 30.17C88.3176 30.0672 88.2456 29.8257 88.1634 29.4454C88.0812 29.0548 87.9938 28.6026 87.9013 28.0887C87.8088 27.5645 87.7214 27.0044 87.6392 26.4083C87.557 25.8121 87.4799 25.2469 87.408 24.7124C87.336 24.1779 87.2795 23.7103 87.2384 23.3095C87.1973 22.9086 87.1767 22.6362 87.1767 22.4924V22.2611C86.8478 22.9703 86.5754 23.7308 86.3596 24.5428C86.1438 25.3548 85.9793 26.1513 85.8663 26.9324L85.8046 27.2099C85.784 27.2922 85.7686 27.3744 85.7583 27.4566C85.7481 27.5286 85.7429 27.6005 85.7429 27.6725C85.7429 27.7855 85.7532 27.9243 85.7738 28.0887C85.8046 28.2532 85.8406 28.433 85.8817 28.6283C85.9331 28.8955 85.9742 29.173 86.005 29.4608C86.0461 29.7383 86.0667 30.0158 86.0667 30.2933ZM103.55 30.17C103.55 30.3756 103.498 30.5143 103.395 30.5863C103.293 30.6685 103.149 30.7096 102.964 30.7096C102.481 30.7096 102.131 30.5811 101.915 30.3242C101.71 30.0672 101.556 29.728 101.453 29.3067C101.422 29.1628 101.391 29.0189 101.36 28.875C101.329 28.7208 101.304 28.5718 101.283 28.4279C101.263 28.2943 101.242 28.2018 101.222 28.1504C101.201 28.099 101.18 28.0013 101.16 27.8575C101.037 28.1555 100.882 28.469 100.697 28.7979C100.523 29.1165 100.317 29.4146 100.081 29.6921C99.8443 29.9593 99.5771 30.1803 99.279 30.355C98.9912 30.5297 98.6726 30.6171 98.3232 30.6171C97.9532 30.6171 97.6448 30.5297 97.3982 30.355C97.1515 30.17 96.9562 29.9439 96.8123 29.6767C96.6787 29.3992 96.5811 29.096 96.5194 28.7671C96.468 28.4382 96.4423 28.1247 96.4423 27.8266C96.4423 27.1277 96.5091 26.3723 96.6427 25.5603C96.7866 24.7381 96.9819 23.921 97.2286 23.109C97.4752 22.2868 97.763 21.5005 98.0919 20.7502C98.4208 19.9897 98.7805 19.3267 99.1711 18.7614V18.7769L99.2636 18.6381C99.3767 18.4839 99.5051 18.3195 99.649 18.1448C99.8032 17.9598 99.9831 17.8673 100.189 17.8673C100.384 17.8673 100.553 17.9546 100.697 18.1294C100.841 18.2938 100.944 18.4685 101.006 18.6535C101.273 18.7049 101.489 18.7717 101.653 18.8539C101.818 18.9259 101.946 19.0184 102.039 19.1315C102.131 19.2445 102.193 19.3781 102.224 19.5323C102.254 19.6762 102.27 19.8355 102.27 20.0102C102.27 20.0822 102.27 20.1593 102.27 20.2415C102.27 20.3237 102.265 20.4059 102.254 20.4881C102.244 20.5704 102.239 20.668 102.239 20.7811C102.239 20.8941 102.239 20.9969 102.239 21.0894C102.239 21.1922 102.254 21.3258 102.285 21.4903C102.326 21.6547 102.368 21.8243 102.409 21.999L102.517 22.5694C102.568 22.8675 102.609 23.2067 102.64 23.587C102.681 23.9672 102.727 24.3475 102.779 24.7278C102.82 25.1184 102.861 25.4987 102.902 25.8687C102.943 26.2284 102.984 26.5624 103.025 26.8708L103.395 29.1525L103.442 29.4146C103.462 29.5482 103.483 29.6715 103.503 29.7846C103.534 29.8976 103.55 30.0261 103.55 30.17ZM100.019 21.3052C100.019 21.2847 100.014 21.2539 100.004 21.2127C99.9933 21.1614 99.9831 21.11 99.9728 21.0586C99.7364 21.5622 99.5257 22.1121 99.3407 22.7082C99.166 23.294 99.0169 23.8953 98.8936 24.512C98.7805 25.1184 98.6932 25.7299 98.6315 26.3466C98.5801 26.953 98.5544 27.5286 98.5544 28.0733C98.5544 28.1247 98.5544 28.1709 98.5544 28.212C98.5544 28.2532 98.5596 28.2943 98.5698 28.3354V28.3508C98.8165 27.9705 99.0272 27.472 99.2019 26.8554C99.3869 26.2284 99.5411 25.5757 99.6644 24.8974C99.7878 24.2088 99.8751 23.5458 99.9265 22.9086C99.9882 22.2611 100.019 21.7266 100.019 21.3052Z" fill="white"/>
</g>
<rect x="1" y="1" width="134" height="40" rx="10.0509" stroke="white" stroke-opacity="0.25" stroke-width="2"/>
<defs>
<clipPath id="clip0_111_616">
<rect width="136" height="42" rx="11.0509" fill="white"/>
</clipPath>
</defs>
</svg>
