<svg width="36" height="36" viewBox="0 0 36 36" fill="none" xmlns="http://www.w3.org/2000/svg">
<g clip-path="url(#clip0_150_173)">
<path d="M13.4671 20.1094H10.9248C10.515 21.4813 10.5142 22.9535 10.9248 24.3281H13.4671C13.3237 22.9386 13.3234 21.5013 13.4671 20.1094Z" fill="#2A0DD2"/>
<path d="M18.0001 14.8359C17.6367 14.8359 17.0089 15.3149 16.4351 16.6652C16.2618 17.073 16.111 17.5215 15.9822 18H20.018C19.4429 15.8607 18.5571 14.8359 18.0001 14.8359Z" fill="#2A0DD2"/>
<path d="M36 8.50781V3.86691C36 1.73474 34.2653 0 32.1331 0H3.86691C1.73474 0 0 1.73474 0 3.86691V8.50781H36ZM30.6562 4.28906C31.2388 4.28906 31.7109 4.7612 31.7109 5.34375C31.7109 5.9263 31.2388 6.39844 30.6562 6.39844C30.0737 6.39844 29.6016 5.9263 29.6016 5.34375C29.6016 4.7612 30.0737 4.28906 30.6562 4.28906ZM26.4375 4.28906C27.0201 4.28906 27.4922 4.7612 27.4922 5.34375C27.4922 5.9263 27.0201 6.39844 26.4375 6.39844C25.8549 6.39844 25.3828 5.9263 25.3828 5.34375C25.3828 4.7612 25.8549 4.28906 26.4375 4.28906ZM22.2188 4.28906C22.8013 4.28906 23.2734 4.7612 23.2734 5.34375C23.2734 5.9263 22.8013 6.39844 22.2188 6.39844C21.6362 6.39844 21.1641 5.9263 21.1641 5.34375C21.1641 4.7612 21.6362 4.28906 22.2188 4.28906Z" fill="#2A0DD2"/>
<path d="M22.1903 18.0001H24.0552C23.3818 17.0366 22.4847 16.2406 21.4399 15.688C21.7654 16.4191 22.0101 17.2104 22.1903 18.0001Z" fill="#2A0DD2"/>
<path d="M11.9448 18.0001H13.8098C13.9899 17.2104 14.2344 16.4194 14.5601 15.688C13.5153 16.2406 12.6183 17.0366 11.9448 18.0001Z" fill="#2A0DD2"/>
<path d="M13.8098 26.4375H11.9448C12.6183 27.401 13.5153 28.197 14.5601 28.7496C14.2346 28.0184 13.9899 27.2271 13.8098 26.4375Z" fill="#2A0DD2"/>
<path d="M22.533 24.3281H25.0752C25.485 22.9559 25.4858 21.484 25.0752 20.1094H22.533C22.6763 21.4989 22.6766 22.9362 22.533 24.3281Z" fill="#2A0DD2"/>
<path d="M18.0001 29.6016C18.3635 29.6016 18.9913 29.1226 19.5651 27.7723C19.7384 27.3645 19.8892 26.916 20.018 26.4375H15.9822C16.5573 28.5768 17.4431 29.6016 18.0001 29.6016Z" fill="#2A0DD2"/>
<path d="M0 10.6172V32.1331C0 34.2653 1.73474 36 3.86691 36H32.1331C34.2653 36 36 34.2653 36 32.1331V10.6172H0ZM18 31.7109C12.7661 31.7109 8.50781 27.4526 8.50781 22.2188C8.50781 16.9849 12.7661 12.7266 18 12.7266C23.2339 12.7266 27.4922 16.9849 27.4922 22.2188C27.4922 27.4526 23.2339 31.7109 18 31.7109Z" fill="#2A0DD2"/>
<path d="M15.5882 20.1094C15.4289 21.4884 15.4289 22.948 15.5882 24.3281H20.412C20.5711 22.9491 20.5711 21.4895 20.412 20.1094H15.5882Z" fill="#2A0DD2"/>
<path d="M21.4399 28.7496C22.4847 28.197 23.382 27.401 24.0552 26.4375H22.1903C22.0101 27.2271 21.7654 28.0182 21.4399 28.7496Z" fill="#2A0DD2"/>
</g>
<defs>
<clipPath id="clip0_150_173">
<rect width="36" height="36" fill="white"/>
</clipPath>
</defs>
</svg>
