<svg width="24" height="24" viewBox="0 0 24 24" fill="none" xmlns="http://www.w3.org/2000/svg">
<path d="M11.9995 8.00571C9.78813 8.00571 8.00536 9.80571 8.00536 12C8.00536 14.1943 9.80528 15.9943 11.9995 15.9943C14.1937 15.9943 15.9936 14.1943 15.9936 12C15.9936 9.80571 14.1937 8.00571 11.9995 8.00571ZM23.9989 12C23.9989 10.3371 23.9989 8.70857 23.9132 7.04571C23.8275 5.12571 23.3818 3.41143 21.9762 2.02286C20.5705 0.617143 18.8734 0.171428 16.9535 0.0857142C15.2907 -8.30208e-08 13.6622 0 11.9995 0C10.3367 0 8.70818 -8.30208e-08 7.0454 0.0857142C5.12549 0.171428 3.41128 0.617143 2.02277 2.02286C0.617115 3.42857 0.171421 5.12571 0.0857104 7.04571C-8.3017e-08 8.70857 0 10.3371 0 12C0 13.6629 -8.3017e-08 15.2914 0.0857104 16.9543C0.171421 18.8743 0.617115 20.5886 2.02277 21.9771C3.42842 23.3829 5.12549 23.8286 7.0454 23.9143C8.70818 24 10.3367 24 11.9995 24C13.6622 24 15.2907 24 16.9535 23.9143C18.8734 23.8286 20.5877 23.3829 21.9762 21.9771C23.3818 20.5714 23.8275 18.8743 23.9132 16.9543C24.0161 15.3086 23.9989 13.6629 23.9989 12ZM11.9995 18.1543C8.58819 18.1543 5.84545 15.4114 5.84545 12C5.84545 8.58857 8.58819 5.84571 11.9995 5.84571C15.4107 5.84571 18.1535 8.58857 18.1535 12C18.1535 15.4114 15.4107 18.1543 11.9995 18.1543ZM18.4106 7.02857C17.6221 7.02857 16.9707 6.39429 16.9707 5.58857C16.9707 4.78286 17.6049 4.14857 18.4106 4.14857C19.2163 4.14857 19.8505 4.78286 19.8505 5.58857C19.8549 5.77635 19.8206 5.96301 19.7498 6.137C19.6791 6.31098 19.5733 6.46857 19.4391 6.6C19.3077 6.73418 19.1501 6.83994 18.9762 6.91071C18.8022 6.98149 18.6155 7.01577 18.4277 7.01143L18.4106 7.02857Z" fill="#FB4F1F"/>
</svg>
