<svg width="129" height="28" viewBox="0 0 129 28" fill="none" xmlns="http://www.w3.org/2000/svg">
<path d="M8.82 27C7.188 27 5.904 26.532 4.968 25.596C4.056 24.66 3.6 23.388 3.6 21.78V4.032H7.704V21.6C7.704 22.152 7.872 22.608 8.208 22.968C8.544 23.304 8.988 23.472 9.54 23.472H13.392V27H8.82ZM0.432 12.168V8.64H13.428V12.168H0.432ZM25.9751 27C23.9111 27 22.0991 26.616 20.5391 25.848C19.0031 25.056 17.8031 23.976 16.9391 22.608C16.0751 21.216 15.6431 19.62 15.6431 17.82C15.6431 15.924 16.0271 14.256 16.7951 12.816C17.5631 11.376 18.6191 10.248 19.9631 9.432C21.3071 8.616 22.8551 8.208 24.6071 8.208C26.5751 8.208 28.1951 8.628 29.4671 9.468C30.7391 10.308 31.6751 11.436 32.2751 12.852C32.8991 14.268 33.2111 15.852 33.2111 17.604C33.2111 17.844 33.1991 18.12 33.1751 18.432C33.1511 18.744 33.1151 18.984 33.0671 19.152H20.0351C20.1791 20.112 20.5271 20.916 21.0791 21.564C21.6311 22.188 22.3271 22.668 23.1671 23.004C24.0071 23.316 24.9431 23.472 25.9751 23.472H30.9071V27H25.9751ZM19.9991 16.344H29.0711C29.0471 15.888 28.9751 15.432 28.8551 14.976C28.7591 14.52 28.5911 14.088 28.3511 13.68C28.1351 13.272 27.8471 12.924 27.4871 12.636C27.1511 12.324 26.7431 12.084 26.2631 11.916C25.7831 11.724 25.2311 11.628 24.6071 11.628C23.8871 11.628 23.2511 11.772 22.6991 12.06C22.1471 12.324 21.6791 12.684 21.2951 13.14C20.9111 13.572 20.6111 14.076 20.3951 14.652C20.2031 15.204 20.0711 15.768 19.9991 16.344ZM37.0778 27V0.719999H41.2178V15.984H45.1777L49.7858 8.64H54.3578L49.2098 16.632C50.8658 17.208 52.1498 18.18 53.0618 19.548C53.9738 20.892 54.4297 22.44 54.4297 24.192V27H50.2898V24.192C50.2898 23.328 50.0858 22.548 49.6778 21.852C49.2698 21.132 48.7178 20.568 48.0218 20.16C47.3258 19.752 46.5338 19.548 45.6458 19.548H41.2178V27H37.0778ZM58.734 27V8.64H62.874V27H58.734ZM60.786 6.084C60.066 6.084 59.442 5.82 58.914 5.292C58.386 4.764 58.122 4.14 58.122 3.42C58.122 2.7 58.386 2.076 58.914 1.548C59.442 1.02 60.066 0.755999 60.786 0.755999C61.53 0.755999 62.154 1.02 62.658 1.548C63.186 2.076 63.45 2.7 63.45 3.42C63.45 4.14 63.186 4.764 62.658 5.292C62.154 5.82 61.53 6.084 60.786 6.084Z" fill="white"/>
<path d="M76.3715 27.432C74.9075 27.432 73.5755 27.204 72.3755 26.748C71.1995 26.268 70.1915 25.584 69.3515 24.696C68.5355 23.808 67.8995 22.764 67.4435 21.564C67.0115 20.34 66.7955 18.996 66.7955 17.532C66.7955 15.66 67.1675 14.028 67.9115 12.636C68.6795 11.244 69.7355 10.164 71.0795 9.396C72.4235 8.604 73.9595 8.208 75.6875 8.208C76.5515 8.208 77.3675 8.34 78.1355 8.604C78.9035 8.868 79.5995 9.24 80.2235 9.72C80.8475 10.2 81.3515 10.764 81.7355 11.412H81.7715V0.719999H85.9115V17.604C85.9115 19.62 85.5035 21.372 84.6875 22.86C83.8955 24.324 82.7795 25.452 81.3395 26.244C79.9235 27.036 78.2675 27.432 76.3715 27.432ZM76.3715 23.904C77.4275 23.904 78.3515 23.652 79.1435 23.148C79.9595 22.62 80.5955 21.9 81.0515 20.988C81.5075 20.076 81.7355 19.02 81.7355 17.82C81.7355 16.62 81.5075 15.564 81.0515 14.652C80.5955 13.74 79.9595 13.032 79.1435 12.528C78.3515 12 77.4155 11.736 76.3355 11.736C75.3035 11.736 74.3795 12 73.5635 12.528C72.7475 13.056 72.1115 13.776 71.6555 14.688C71.1995 15.6 70.9715 16.644 70.9715 17.82C70.9715 19.02 71.1995 20.076 71.6555 20.988C72.1115 21.9 72.7475 22.62 73.5635 23.148C74.4035 23.652 75.3395 23.904 76.3715 23.904ZM100.014 27C97.9502 27 96.1382 26.616 94.5782 25.848C93.0422 25.056 91.8422 23.976 90.9782 22.608C90.1142 21.216 89.6822 19.62 89.6822 17.82C89.6822 15.924 90.0662 14.256 90.8342 12.816C91.6022 11.376 92.6582 10.248 94.0022 9.432C95.3462 8.616 96.8942 8.208 98.6462 8.208C100.614 8.208 102.234 8.628 103.506 9.468C104.778 10.308 105.714 11.436 106.314 12.852C106.938 14.268 107.25 15.852 107.25 17.604C107.25 17.844 107.238 18.12 107.214 18.432C107.19 18.744 107.154 18.984 107.106 19.152H94.0742C94.2182 20.112 94.5662 20.916 95.1182 21.564C95.6702 22.188 96.3662 22.668 97.2062 23.004C98.0462 23.316 98.9822 23.472 100.014 23.472H104.946V27H100.014ZM94.0382 16.344H103.11C103.086 15.888 103.014 15.432 102.894 14.976C102.798 14.52 102.63 14.088 102.39 13.68C102.174 13.272 101.886 12.924 101.526 12.636C101.19 12.324 100.782 12.084 100.302 11.916C99.8222 11.724 99.2702 11.628 98.6462 11.628C97.9262 11.628 97.2902 11.772 96.7382 12.06C96.1862 12.324 95.7182 12.684 95.3342 13.14C94.9502 13.572 94.6502 14.076 94.4342 14.652C94.2422 15.204 94.1102 15.768 94.0382 16.344ZM118.649 27.432C117.689 27.432 116.825 27.168 116.057 26.64C115.313 26.112 114.773 25.404 114.437 24.516L108.821 8.64H113.321L118.109 22.896C118.181 23.064 118.265 23.184 118.361 23.256C118.457 23.328 118.565 23.364 118.685 23.364C118.805 23.364 118.913 23.328 119.009 23.256C119.129 23.184 119.213 23.064 119.261 22.896L124.085 8.64H128.513L122.861 24.516C122.549 25.404 122.009 26.112 121.241 26.64C120.473 27.168 119.609 27.432 118.649 27.432Z" fill="#FB4F1F"/>
</svg>
