<svg width="150" height="178" viewBox="0 0 150 178" fill="none" xmlns="http://www.w3.org/2000/svg">
<path opacity="0.1" d="M111.68 178H40.638C34.3926 178 29.3293 172.937 29.3293 166.691V23.1934C29.3293 16.9476 34.3926 11.8848 40.638 11.8848H111.68C117.926 11.8848 122.989 16.9476 122.989 23.1934V166.691C122.989 172.937 117.926 178 111.68 178Z" fill="#2626BC"/>
<path d="M111.68 168.953H40.638C34.3926 168.953 29.3293 163.89 29.3293 157.645V14.1465C29.3293 7.90076 34.3926 2.83789 40.638 2.83789H111.68C117.926 2.83789 122.989 7.90076 122.989 14.1465V157.645C122.989 163.89 117.926 168.953 111.68 168.953Z" fill="#6583FE"/>
<path d="M29.3301 19.0126H122.988V152.778H29.3301V19.0126Z" fill="white"/>
<path d="M29.3301 109.244H122.988V152.778H29.3301V109.244Z" fill="white"/>
<path d="M111.68 170.838H40.638C33.3631 170.838 27.4446 164.919 27.4446 157.645V14.1465C27.4446 6.87168 33.3631 0.953125 40.638 0.953125H111.681C118.955 0.953125 124.874 6.87168 124.874 14.1465V157.645C124.874 164.919 118.955 170.838 111.68 170.838ZM40.638 4.72266C35.4417 4.72266 31.2141 8.9502 31.2141 14.1465V157.645C31.2141 162.841 35.4417 167.068 40.638 167.068H111.681C116.877 167.068 121.104 162.841 121.104 157.645V14.1465C121.104 8.9502 116.877 4.72266 111.681 4.72266H40.638Z" fill="#2626BC"/>
<path d="M82.7494 13.155H69.5689C68.5281 13.155 67.6841 12.311 67.6841 11.2703C67.6841 10.2295 68.5281 9.3855 69.5689 9.3855H82.7494C83.7902 9.3855 84.6342 10.2295 84.6342 11.2703C84.6342 12.3114 83.7902 13.155 82.7494 13.155Z" fill="#2626BC"/>
<path d="M93.4292 11.2699C93.4292 12.3111 92.5852 13.1554 91.5437 13.1554C90.5026 13.1554 89.6582 12.3114 89.6582 11.2699C89.6582 10.2288 90.5022 9.3844 91.5437 9.3844C92.5852 9.3844 93.4292 10.2284 93.4292 11.2699Z" fill="#2626BC"/>
<path d="M76.1591 143.394C80.7846 143.394 84.5343 139.645 84.5343 135.019C84.5343 130.394 80.7846 126.644 76.1591 126.644C71.5336 126.644 67.7839 130.394 67.7839 135.019C67.7839 139.645 71.5336 143.394 76.1591 143.394Z" fill="#6583FE"/>
<path d="M79.4912 133.135H78.0437V131.687C78.0437 130.646 77.1997 129.802 76.1589 129.802C75.1182 129.802 74.2742 130.646 74.2742 131.687V133.135H72.8267C71.7859 133.135 70.9419 133.979 70.9419 135.019C70.9419 136.06 71.7859 136.904 72.8267 136.904H74.2742V138.352C74.2742 139.392 75.1182 140.236 76.1589 140.236C77.1997 140.236 78.0437 139.392 78.0437 138.352V136.904H79.4912C80.532 136.904 81.376 136.06 81.376 135.019C81.376 133.979 80.5324 133.135 79.4912 133.135Z" fill="#2626BC"/>
<path d="M108.369 87.6253H43.9487C41.8668 87.6253 40.1792 85.9377 40.1792 83.8558V64.2949C40.1792 62.213 41.8668 60.5254 43.9487 60.5254H108.369C110.451 60.5254 112.139 62.213 112.139 64.2949V83.8558C112.139 85.9377 110.451 87.6253 108.369 87.6253Z" fill="#6583FE"/>
<path d="M108.369 120.161H43.9487C41.8668 120.161 40.1792 118.473 40.1792 116.391V96.8306C40.1792 94.7487 41.8668 93.061 43.9487 93.061H108.369C110.451 93.061 112.139 94.7487 112.139 96.8306V116.391C112.139 118.473 110.451 120.161 108.369 120.161Z" fill="#6583FE"/>
<path d="M52.6744 65.5011H47.1404C46.0996 65.5011 45.2556 66.3451 45.2556 67.3859C45.2556 68.4266 46.0996 69.2706 47.1404 69.2706H52.6744C53.7152 69.2706 54.5592 68.4266 54.5592 67.3859C54.5592 66.3451 53.7152 65.5011 52.6744 65.5011Z" fill="#2626BC"/>
<path d="M52.6744 98.0846H47.1404C46.0996 98.0846 45.2556 98.9286 45.2556 99.9694C45.2556 101.01 46.0996 101.854 47.1404 101.854H52.6744C53.7152 101.854 54.5592 101.01 54.5592 99.9694C54.5592 98.9286 53.7152 98.0846 52.6744 98.0846Z" fill="#2626BC"/>
<path d="M112.139 43.0671V51.3187C112.139 53.4032 110.45 55.0882 108.37 55.0882H43.9482C41.8675 55.0882 40.1787 53.4032 40.1787 51.3187V43.0671C40.1787 40.9864 41.8675 39.2976 43.9482 39.2976H108.37C110.45 39.2976 112.139 40.9864 112.139 43.0671Z" fill="white"/>
<path d="M108.37 56.973H43.9483C40.8305 56.973 38.2939 54.4365 38.2939 51.3187V43.0671C38.2939 39.9494 40.8305 37.4128 43.9483 37.4128H108.37C111.488 37.4128 114.024 39.9494 114.024 43.0671V51.3187C114.024 54.4365 111.488 56.973 108.37 56.973ZM43.9483 41.1824C42.909 41.1824 42.0635 42.0279 42.0635 43.0671V51.3187C42.0635 52.3579 42.909 53.2034 43.9483 53.2034H108.37C109.409 53.2034 110.254 52.3579 110.254 51.3187V43.0671C110.254 42.0279 109.409 41.1824 108.37 41.1824H43.9483Z" fill="#2626BC"/>
<path d="M111.619 45.1588C115.784 40.9938 115.784 34.2411 111.619 30.0761C107.454 25.9111 100.701 25.9111 96.5362 30.0761C92.3712 34.2411 92.3712 40.9938 96.5362 45.1588C100.701 49.3237 107.454 49.3237 111.619 45.1588Z" fill="#6583FE"/>
<path d="M102.204 31.9391C101.639 31.9391 101.081 32.192 100.71 32.6738C100.075 33.4985 100.229 34.6822 101.054 35.3173L104.03 37.6092L101.054 39.9011C100.229 40.5363 100.075 41.7195 100.71 42.5447C101.345 43.3687 102.529 43.5225 103.353 42.8881L108.269 39.1027C108.733 38.7461 109.004 38.1943 109.004 37.6092C109.004 37.0242 108.733 36.4723 108.269 36.1157L103.353 32.3304C103.01 32.0669 102.606 31.9391 102.204 31.9391Z" fill="#2626BC"/>
<path d="M50.0968 141.51H46.8245C45.7837 141.51 44.9397 142.354 44.9397 143.395C44.9397 144.436 45.7837 145.28 46.8245 145.28H50.0968C51.1376 145.28 51.9816 144.436 51.9816 143.395C51.9816 142.354 51.1376 141.51 50.0968 141.51Z" fill="#2626BC"/>
<path d="M62.1908 141.51H58.9185C57.8777 141.51 57.0337 142.354 57.0337 143.395C57.0337 144.436 57.8777 145.28 58.9185 145.28H62.1908C63.2316 145.28 64.0756 144.436 64.0756 143.395C64.0756 142.354 63.2316 141.51 62.1908 141.51Z" fill="#2626BC"/>
<path d="M93.3998 141.51H90.1274C89.0867 141.51 88.2427 142.354 88.2427 143.395C88.2427 144.436 89.0867 145.28 90.1274 145.28H93.3998C94.4406 145.28 95.2846 144.436 95.2846 143.395C95.2846 142.354 94.4406 141.51 93.3998 141.51Z" fill="#2626BC"/>
<path d="M105.494 141.51H102.221C101.181 141.51 100.337 142.354 100.337 143.395C100.337 144.436 101.181 145.28 102.221 145.28H105.494C106.535 145.28 107.379 144.436 107.379 143.395C107.379 142.354 106.535 141.51 105.494 141.51Z" fill="#2626BC"/>
<path d="M144.492 100.809C141.522 100.809 139.105 98.3926 139.105 95.4218C139.105 92.4514 141.522 90.0344 144.492 90.0344C147.463 90.0344 149.879 92.4511 149.879 95.4218C149.879 98.3926 147.463 100.809 144.492 100.809ZM144.492 93.8043C143.6 93.8043 142.875 94.53 142.875 95.4222C142.875 96.3145 143.6 97.0401 144.492 97.0401C145.384 97.0401 146.11 96.3145 146.11 95.4222C146.11 94.53 145.384 93.8043 144.492 93.8043Z" fill="#6583FE"/>
<path d="M5.50741 140.407C2.53701 140.407 0.120361 137.99 0.120361 135.019C0.120361 132.049 2.53701 129.632 5.50741 129.632C8.47818 129.632 10.8948 132.049 10.8948 135.019C10.8948 137.99 8.47818 140.407 5.50741 140.407ZM5.50741 133.402C4.61554 133.402 3.8899 134.128 3.8899 135.02C3.8899 135.912 4.61554 136.638 5.50741 136.638C6.39928 136.638 7.12529 135.912 7.12529 135.02C7.12529 134.128 6.39966 133.402 5.50741 133.402Z" fill="#6583FE"/>
<path d="M139.024 117.137C137.983 117.137 137.14 116.293 137.14 115.252C137.14 114.005 136.125 112.99 134.878 112.99C133.837 112.99 132.993 112.146 132.993 111.105C132.993 110.065 133.837 109.221 134.878 109.221C136.125 109.221 137.14 108.206 137.14 106.959C137.14 105.918 137.983 105.074 139.024 105.074C140.066 105.074 140.909 105.918 140.909 106.959C140.909 108.206 141.924 109.221 143.171 109.221C144.212 109.221 145.056 110.065 145.056 111.105C145.056 112.146 144.212 112.99 143.171 112.99C141.924 112.99 140.909 114.005 140.909 115.252C140.909 116.293 140.065 117.137 139.024 117.137Z" fill="#6583FE"/>
<path d="M11.3377 115.976C10.2965 115.976 9.45289 115.132 9.45289 114.091C9.45289 112.843 8.43851 111.829 7.19117 111.829C6.15002 111.829 5.3064 110.985 5.3064 109.944C5.3064 108.904 6.15002 108.06 7.19117 108.06C8.43851 108.06 9.45289 107.045 9.45289 105.798C9.45289 104.757 10.2965 103.913 11.3377 103.913C12.3788 103.913 13.2224 104.757 13.2224 105.798C13.2224 107.045 14.2368 108.06 15.4841 108.06C16.5253 108.06 17.3689 108.904 17.3689 109.944C17.3689 110.985 16.5253 111.829 15.4841 111.829C14.2368 111.829 13.2224 112.843 13.2224 114.091C13.2224 115.132 12.3788 115.976 11.3377 115.976Z" fill="#6583FE"/>
<path d="M141.065 39.348C140.024 39.348 139.18 38.504 139.18 37.4633C139.18 36.2159 138.166 35.2016 136.918 35.2016C135.877 35.2016 135.034 34.3576 135.034 33.3168C135.034 32.276 135.877 31.432 136.918 31.432C138.166 31.432 139.18 30.4176 139.18 29.1703C139.18 28.1295 140.024 27.2855 141.065 27.2855C142.106 27.2855 142.95 28.1295 142.95 29.1703C142.95 30.4176 143.964 31.432 145.211 31.432C146.253 31.432 147.096 32.276 147.096 33.3168C147.096 34.3576 146.253 35.2016 145.211 35.2016C143.964 35.2016 142.95 36.2159 142.95 37.4633C142.95 38.504 142.106 39.348 141.065 39.348Z" fill="#6583FE"/>
</svg>
