<svg width="136" height="42" viewBox="0 0 136 42" fill="none" xmlns="http://www.w3.org/2000/svg">
<rect width="136" height="42" rx="11.0509" fill="#140859"/>
<rect x="1" y="1" width="134" height="40" rx="10.0509" stroke="white" stroke-opacity="0.25" stroke-width="2"/>
<g clip-path="url(#clip0_111_622)">
<path d="M59.1378 12.4771C58.382 12.4777 57.6477 12.729 57.0501 13.1918C56.4526 13.6546 56.0254 14.3026 55.8357 15.0342H51.9265C51.1197 15.034 50.3389 15.3201 49.7232 15.8414C49.1075 16.3628 48.6966 17.0857 48.5637 17.8815L48.4247 18.7235C48.3591 19.1218 48.1539 19.4837 47.8458 19.7445C47.5378 20.0053 47.147 20.148 46.7434 20.1471H45.3926C45.2034 19.4155 44.7764 18.7674 44.1789 18.3047C43.5813 17.8421 42.847 17.591 42.0912 17.591C41.3355 17.591 40.6012 17.8421 40.0036 18.3047C39.4061 18.7674 38.9791 19.4155 38.7899 20.1471H36.871C36.6635 19.3436 36.17 18.6433 35.483 18.1776C34.7961 17.7118 33.9629 17.5126 33.1396 17.6172C32.3162 17.7218 31.5593 18.1231 31.0107 18.7458C30.4621 19.3686 30.1594 20.17 30.1594 21C30.1594 21.8299 30.4621 22.6314 31.0107 23.2541C31.5593 23.8769 32.3162 24.2781 33.1396 24.3828C33.9629 24.4874 34.7961 24.2881 35.483 23.8224C36.17 23.3567 36.6635 22.6564 36.871 21.8528H38.7899C38.9787 22.5851 39.4055 23.2338 40.0032 23.697C40.601 24.1602 41.3357 24.4116 42.0919 24.4116C42.8481 24.4116 43.5829 24.1602 44.1806 23.697C44.7784 23.2338 45.2052 22.5851 45.3939 21.8528H46.7434C47.1472 21.8516 47.5383 21.9942 47.8467 22.255C48.155 22.5159 48.3604 22.878 48.4261 23.2764L48.5651 24.1171C48.6977 24.9132 49.1084 25.6364 49.7242 26.158C50.3399 26.6796 51.1208 26.9659 51.9278 26.9658H52.4271C52.6345 27.7694 53.1279 28.4698 53.8149 28.9357C54.5018 29.4016 55.335 29.601 56.1584 29.4964C56.9818 29.3919 57.7388 28.9906 58.2875 28.3679C58.8362 27.7451 59.1389 26.9436 59.1389 26.1136C59.1389 25.2836 58.8362 24.4821 58.2875 23.8593C57.7388 23.2366 56.9818 22.8353 56.1584 22.7308C55.335 22.6262 54.5018 22.8256 53.8149 23.2915C53.1279 23.7574 52.6345 24.4578 52.4271 25.2614H51.9278C51.524 25.2623 51.1331 25.1194 50.825 24.8583C50.5169 24.5972 50.3118 24.235 50.2465 23.8365L50.1075 22.9958C49.9788 22.2225 49.587 21.5175 48.9982 21C49.5862 20.4817 49.9771 19.7762 50.1048 19.0028L50.2451 18.1635C50.3105 17.765 50.5156 17.4028 50.8236 17.1417C51.1317 16.8806 51.5227 16.7377 51.9265 16.7385H55.8344C55.9937 17.3561 56.323 17.9167 56.7849 18.3565C57.2468 18.7964 57.8228 19.0978 58.4475 19.2267C59.0721 19.3556 59.7204 19.3066 60.3187 19.0855C60.9169 18.8643 61.4412 18.4798 61.8318 17.9756C62.2225 17.4715 62.4639 16.8678 62.5287 16.2333C62.5935 15.5988 62.479 14.9588 62.1982 14.3861C61.9175 13.8134 61.4818 13.3309 60.9405 12.9934C60.3993 12.656 59.7743 12.4771 59.1364 12.4771M59.1364 14.1814C59.5884 14.1814 60.0219 14.3609 60.3416 14.6805C60.6612 15.0002 60.8407 15.4337 60.8407 15.8857C60.8409 16.1096 60.797 16.3314 60.7114 16.5383C60.6258 16.7452 60.5003 16.9333 60.342 17.0917C60.1838 17.2501 59.9958 17.3758 59.789 17.4615C59.5821 17.5472 59.3604 17.5913 59.1364 17.5913C58.9125 17.5913 58.6908 17.5472 58.4839 17.4615C58.277 17.3758 58.0891 17.2501 57.9308 17.0917C57.7725 16.9333 57.647 16.7452 57.5615 16.5383C57.4759 16.3314 57.4319 16.1096 57.4321 15.8857C57.4321 15.6618 57.4762 15.44 57.562 15.2332C57.6477 15.0263 57.7734 14.8383 57.9318 14.6801C58.0902 14.5218 58.2782 14.3963 58.4851 14.3107C58.6921 14.2251 58.9139 14.1812 59.1378 14.1814M33.569 19.2957C33.7929 19.2955 34.0147 19.3394 34.2216 19.425C34.4286 19.5106 34.6166 19.6361 34.775 19.7944C34.9334 19.9526 35.0591 20.1406 35.1448 20.3475C35.2305 20.5543 35.2747 20.7761 35.2747 21C35.2747 21.2239 35.2305 21.4456 35.1448 21.6525C35.0591 21.8594 34.9334 22.0473 34.775 22.2056C34.6166 22.3639 34.4286 22.4894 34.2216 22.5749C34.0147 22.6605 33.7929 22.7045 33.569 22.7043C33.117 22.7043 32.6835 22.5247 32.3639 22.2051C32.0442 21.8855 31.8647 21.452 31.8647 21C31.8647 20.548 32.0442 20.1145 32.3639 19.7948C32.6835 19.4752 33.117 19.2957 33.569 19.2957ZM42.0919 19.2957C42.3157 19.2957 42.5374 19.3397 42.7441 19.4254C42.9509 19.511 43.1388 19.6366 43.2971 19.7948C43.4553 19.9531 43.5809 20.141 43.6665 20.3478C43.7522 20.5545 43.7962 20.7762 43.7962 21C43.7962 21.452 43.6167 21.8855 43.2971 22.2051C42.9774 22.5247 42.5439 22.7043 42.0919 22.7043C41.6401 22.7039 41.207 22.5242 40.8877 22.2046C40.5683 21.8851 40.389 21.4518 40.389 21C40.389 20.548 40.5685 20.1145 40.8881 19.7948C41.2078 19.4752 41.6413 19.2957 42.0933 19.2957M55.7305 24.41C56.1825 24.41 56.616 24.5895 56.9356 24.9091C57.2552 25.2288 57.4348 25.6623 57.4348 26.1143C57.4348 26.5663 57.2552 26.9998 56.9356 27.3194C56.616 27.639 56.1825 27.8186 55.7305 27.8186C55.5066 27.8188 55.2848 27.7748 55.0779 27.6892C54.8709 27.6037 54.6829 27.4782 54.5245 27.3199C54.3661 27.1616 54.2404 26.9737 54.1547 26.7668C54.069 26.5599 54.0248 26.3382 54.0248 26.1143C54.0247 25.8903 54.0686 25.6686 54.1542 25.4616C54.2397 25.2547 54.3653 25.0667 54.5235 24.9083C54.6818 24.7499 54.8698 24.6242 55.0766 24.5385C55.2835 24.4527 55.5052 24.4086 55.7291 24.4086" fill="white"/>
</g>
<path d="M81.1391 26.9229C81.1391 27.1593 81.0671 27.3135 80.9232 27.3854C80.7896 27.4574 80.6252 27.4933 80.4299 27.4933C80.2552 27.4933 80.0804 27.4779 79.9057 27.4471C79.7413 27.4265 79.582 27.3803 79.4278 27.3083C79.2839 27.2364 79.1554 27.1388 79.0424 27.0154C78.9396 26.8921 78.8676 26.7328 78.8265 26.5375C78.6826 25.9208 78.6004 25.3196 78.5799 24.7337C78.5593 24.1376 78.549 23.526 78.549 22.8991V21.0028C78.549 20.1395 78.585 19.2453 78.6569 18.3202C78.7289 17.385 78.806 16.4856 78.8882 15.6223C78.8882 15.5914 78.8933 15.5555 78.9036 15.5144C78.9139 15.4732 78.919 15.4424 78.919 15.4219C78.9293 15.3088 78.9447 15.1855 78.9653 15.0519C78.9858 14.9182 79.0167 14.8 79.0578 14.6973C79.1092 14.5842 79.176 14.4917 79.2582 14.4198C79.3507 14.3478 79.4689 14.3118 79.6128 14.3118C79.7772 14.3118 79.9314 14.3478 80.0753 14.4198C80.2295 14.4814 80.3631 14.5688 80.4761 14.6818C80.5892 14.7846 80.6766 14.9131 80.7382 15.0673C80.8102 15.2214 80.8462 15.3807 80.8462 15.5452C80.8462 15.7199 80.841 15.9152 80.8307 16.131C80.8205 16.3366 80.805 16.5319 80.7845 16.7169C80.7845 16.7683 80.7793 16.8248 80.7691 16.8865C80.7691 16.9481 80.7639 17.0047 80.7537 17.0561C80.8975 16.7683 81.062 16.4702 81.247 16.1619C81.432 15.8433 81.6427 15.5555 81.8791 15.2985C82.1258 15.0313 82.393 14.8155 82.6808 14.651C82.9788 14.4866 83.3077 14.4043 83.6675 14.4043C83.9655 14.4043 84.2122 14.4506 84.4075 14.5431C84.6028 14.6356 84.7569 14.7692 84.87 14.9439C84.9933 15.1084 85.0755 15.3037 85.1167 15.5298C85.168 15.7559 85.1937 15.9974 85.1937 16.2544C85.1937 16.6038 85.1835 16.9584 85.1629 17.3181C85.1423 17.6676 85.1218 18.017 85.1012 18.3665C85.0704 18.7262 85.0447 19.0808 85.0241 19.4303C85.0036 19.7797 84.9933 20.1343 84.9933 20.494C84.9933 20.9257 85.0036 21.3728 85.0241 21.8353C85.0447 22.2875 85.0755 22.7244 85.1167 23.1458C85.1578 23.5569 85.204 23.932 85.2554 24.2712C85.3068 24.6001 85.3582 24.857 85.4096 25.042C85.4507 25.1962 85.4918 25.3761 85.5329 25.5816C85.5843 25.7769 85.6306 25.9825 85.6717 26.1983C85.7231 26.4039 85.7642 26.6043 85.795 26.7996C85.8258 26.9949 85.8412 27.1696 85.8412 27.3238C85.8412 27.5499 85.7487 27.6938 85.5637 27.7554C85.389 27.8171 85.2143 27.8479 85.0396 27.8479C84.8648 27.8479 84.6644 27.8325 84.4383 27.8017C84.2225 27.7811 84.0272 27.7246 83.8525 27.6321C83.6366 27.4779 83.4927 27.2621 83.4208 26.9846C83.3591 26.7071 83.318 26.4347 83.2974 26.1675L83.2512 25.7512C83.2204 25.5046 83.1793 25.1808 83.1279 24.78C83.0765 24.3791 83.0251 23.9372 82.9737 23.4541C82.9326 22.971 82.8966 22.4726 82.8658 21.9587C82.8349 21.4345 82.8195 20.9257 82.8195 20.4324C82.8195 19.9904 82.8349 19.5639 82.8658 19.1528C82.9069 18.7416 82.948 18.3254 82.9891 17.904C83.0097 17.6882 83.0251 17.5134 83.0354 17.3798C83.0456 17.2462 83.0611 17.0715 83.0816 16.8556C82.8761 17.1845 82.6705 17.57 82.4649 18.0119C82.2594 18.4539 82.0641 18.9164 81.8791 19.3994C81.6941 19.8722 81.5245 20.3347 81.3703 20.787C81.2264 21.2392 81.1134 21.6349 81.0312 21.9741L80.9387 22.3132C80.8873 22.4777 80.841 22.6421 80.7999 22.8066C80.7691 22.971 80.7537 23.1252 80.7537 23.2691C80.7537 23.4541 80.7639 23.6699 80.7845 23.9166C80.805 24.153 80.8307 24.3791 80.8616 24.595C80.8924 24.8519 80.9284 25.114 80.9695 25.3812C80.9695 25.4018 80.9798 25.4686 81.0003 25.5816C81.0209 25.6947 81.0414 25.8283 81.062 25.9825C81.0825 26.1366 81.098 26.3011 81.1082 26.4758C81.1288 26.6403 81.1391 26.7893 81.1391 26.9229ZM91.5609 15.5914C91.4787 15.6737 91.3965 15.7508 91.3143 15.8227C91.232 15.8946 91.1498 15.9717 91.0676 16.054C90.8107 16.3417 90.6 16.7066 90.4355 17.1486C90.2711 17.5802 90.1374 18.0376 90.0347 18.5207C89.9422 19.0037 89.8754 19.4868 89.8342 19.9699C89.7931 20.4427 89.7726 20.864 89.7726 21.2341C89.7726 21.3882 89.7777 21.6143 89.788 21.9124C89.7983 22.2002 89.8188 22.5188 89.8497 22.8683C89.8908 23.2177 89.9422 23.5774 90.0038 23.9474C90.0758 24.3072 90.1631 24.6361 90.2659 24.9341C90.379 25.2322 90.5126 25.4789 90.6668 25.6741C90.8209 25.8591 91.0059 25.9516 91.2218 25.9516C91.5609 25.9516 91.8539 25.8489 92.1005 25.6433C92.3575 25.4377 92.5733 25.1757 92.748 24.857C92.9228 24.5281 93.0615 24.1581 93.1643 23.747C93.2774 23.3359 93.3596 22.9299 93.411 22.5291C93.4726 22.118 93.5138 21.7274 93.5343 21.3574C93.5549 20.9874 93.5651 20.679 93.5651 20.4324C93.5651 20.0418 93.56 19.6358 93.5497 19.2144C93.5395 18.793 93.4932 18.3819 93.411 17.9811C93.339 17.5802 93.2208 17.1948 93.0564 16.8248C92.9022 16.4445 92.6812 16.1053 92.3935 15.8073C92.2598 15.6428 92.116 15.5298 91.9618 15.4681L91.5609 15.5914ZM90.3893 13.7414C90.6668 13.6181 90.9443 13.5564 91.2218 13.5564C91.4068 13.3406 91.5661 13.0785 91.6997 12.7701C91.8436 12.4618 91.9618 12.138 92.0543 11.7989C92.1468 11.4597 92.2136 11.1205 92.2547 10.7814C92.3061 10.4422 92.3318 10.1338 92.3318 9.85634C92.3318 9.66105 92.3164 9.4298 92.2855 9.16257C92.2547 8.89534 92.2033 8.62812 92.1314 8.36089C92.0697 8.08338 91.9823 7.82643 91.8693 7.59004C91.7665 7.35365 91.6432 7.16351 91.4993 7.01961C91.4273 7.10184 91.3708 7.1892 91.3297 7.2817C91.2886 7.36393 91.2423 7.44101 91.1909 7.51296C91.1498 7.57462 91.0882 7.62601 91.0059 7.66713C90.934 7.70824 90.8312 7.72879 90.6976 7.72879C90.6154 7.72879 90.5331 7.71852 90.4509 7.69796C90.3687 7.66713 90.2865 7.63629 90.2042 7.60546C89.9884 8.05769 89.8291 8.57159 89.7263 9.14715C89.6338 9.71244 89.5876 10.2366 89.5876 10.7197C89.5876 10.915 89.603 11.1616 89.6338 11.4597C89.6647 11.7475 89.7109 12.0404 89.7726 12.3385C89.8342 12.6365 89.9165 12.914 90.0192 13.171C90.122 13.4279 90.2454 13.6181 90.3893 13.7414ZM95.816 20.3707C95.816 20.8743 95.7903 21.4088 95.7389 21.9741C95.6978 22.5291 95.6156 23.0841 95.4923 23.6391C95.3689 24.1838 95.1993 24.708 94.9835 25.2116C94.7779 25.7153 94.5056 26.1623 94.1664 26.5529C93.8272 26.9332 93.4161 27.2364 92.9331 27.4625C92.4603 27.6886 91.9001 27.8017 91.2526 27.8017C90.6873 27.8017 90.1991 27.6989 89.788 27.4933C89.3872 27.2981 89.0428 27.0308 88.7551 26.6917C88.4673 26.3422 88.2309 25.9465 88.0459 25.5046C87.8711 25.0626 87.7324 24.6001 87.6296 24.117C87.5268 23.634 87.4549 23.1509 87.4138 22.6678C87.3829 22.1745 87.3675 21.7171 87.3675 21.2957C87.3675 20.7613 87.3881 20.2217 87.4292 19.6769C87.4703 19.1219 87.5423 18.5823 87.645 18.0582C87.7581 17.5237 87.9123 17.0047 88.1075 16.501C88.3028 15.9974 88.5598 15.5195 88.8784 15.0673C88.5803 14.8309 88.3337 14.5482 88.1384 14.2193C87.9431 13.8904 87.7889 13.541 87.6759 13.171C87.5628 12.801 87.4806 12.4207 87.4292 12.0301C87.3881 11.6396 87.3675 11.2644 87.3675 10.9047C87.3675 10.4833 87.3932 10.0465 87.4446 9.59425C87.5063 9.14202 87.5988 8.69492 87.7221 8.25297C87.8455 7.81102 88.0048 7.38962 88.2 6.98878C88.3953 6.57766 88.6317 6.20765 88.9092 5.87876C88.9503 5.81709 89.0069 5.74514 89.0788 5.66292C89.161 5.5807 89.2433 5.50361 89.3255 5.43167C89.418 5.35972 89.5105 5.29805 89.603 5.24666C89.6955 5.19527 89.7829 5.16958 89.8651 5.16958C90.0295 5.16958 90.1529 5.21069 90.2351 5.29291C90.4201 5.20041 90.6205 5.12333 90.8363 5.06166C91.0625 4.98971 91.2834 4.95374 91.4993 4.95374C92.1057 4.95374 92.6144 5.11305 93.0256 5.43167C93.4367 5.75028 93.7656 6.15112 94.0122 6.63419C94.2589 7.11725 94.4336 7.64143 94.5364 8.20672C94.6495 8.77201 94.706 9.30132 94.706 9.79467C94.706 10.1647 94.6803 10.545 94.6289 10.9355C94.5775 11.3261 94.4953 11.7166 94.3822 12.1072C94.2795 12.4875 94.1459 12.8575 93.9814 13.2172C93.8272 13.577 93.6474 13.9059 93.4418 14.2039C93.9454 14.5328 94.3514 14.9337 94.6598 15.4064C94.9681 15.8792 95.2045 16.3931 95.3689 16.9481C95.5437 17.4929 95.6619 18.0633 95.7235 18.6594C95.7852 19.2453 95.816 19.8157 95.816 20.3707ZM99.8861 26.9229C99.8861 27.1593 99.8142 27.3135 99.6703 27.3854C99.5367 27.4574 99.3722 27.4933 99.1769 27.4933C99.0022 27.4933 98.8275 27.4779 98.6527 27.4471C98.4883 27.4265 98.329 27.3803 98.1748 27.3083C98.0309 27.2364 97.9025 27.1388 97.7894 27.0154C97.6866 26.8921 97.6147 26.7328 97.5736 26.5375C97.4297 25.9208 97.3474 25.3196 97.3269 24.7337C97.3063 24.1376 97.2961 23.526 97.2961 22.8991V21.0028C97.2961 20.1395 97.332 19.2453 97.404 18.3202C97.4759 17.385 97.553 16.4856 97.6352 15.6223C97.6352 15.5914 97.6404 15.5555 97.6506 15.5144C97.6609 15.4732 97.6661 15.4424 97.6661 15.4219C97.6763 15.3088 97.6918 15.1855 97.7123 15.0519C97.7329 14.9182 97.7637 14.8 97.8048 14.6973C97.8562 14.5842 97.923 14.4917 98.0052 14.4198C98.0977 14.3478 98.2159 14.3118 98.3598 14.3118C98.5243 14.3118 98.6784 14.3478 98.8223 14.4198C98.9765 14.4814 99.1101 14.5688 99.2232 14.6818C99.3362 14.7846 99.4236 14.9131 99.4853 15.0673C99.5572 15.2214 99.5932 15.3807 99.5932 15.5452C99.5932 15.7199 99.588 15.9152 99.5778 16.131C99.5675 16.3366 99.5521 16.5319 99.5315 16.7169C99.5315 16.7683 99.5264 16.8248 99.5161 16.8865C99.5161 16.9481 99.511 17.0047 99.5007 17.0561C99.6446 16.7683 99.809 16.4702 99.994 16.1619C100.179 15.8433 100.39 15.5555 100.626 15.2985C100.873 15.0313 101.14 14.8155 101.428 14.651C101.726 14.4866 102.055 14.4043 102.414 14.4043C102.713 14.4043 102.959 14.4506 103.154 14.5431C103.35 14.6356 103.504 14.7692 103.617 14.9439C103.74 15.1084 103.823 15.3037 103.864 15.5298C103.915 15.7559 103.941 15.9974 103.941 16.2544C103.941 16.6038 103.93 16.9584 103.91 17.3181C103.889 17.6676 103.869 18.017 103.848 18.3665C103.817 18.7262 103.792 19.0808 103.771 19.4303C103.751 19.7797 103.74 20.1343 103.74 20.494C103.74 20.9257 103.751 21.3728 103.771 21.8353C103.792 22.2875 103.823 22.7244 103.864 23.1458C103.905 23.5569 103.951 23.932 104.002 24.2712C104.054 24.6001 104.105 24.857 104.157 25.042C104.198 25.1962 104.239 25.3761 104.28 25.5816C104.331 25.7769 104.378 25.9825 104.419 26.1983C104.47 26.4039 104.511 26.6043 104.542 26.7996C104.573 26.9949 104.588 27.1696 104.588 27.3238C104.588 27.5499 104.496 27.6938 104.311 27.7554C104.136 27.8171 103.961 27.8479 103.787 27.8479C103.612 27.8479 103.411 27.8325 103.185 27.8017C102.969 27.7811 102.774 27.7246 102.599 27.6321C102.384 27.4779 102.24 27.2621 102.168 26.9846C102.106 26.7071 102.065 26.4347 102.044 26.1675L101.998 25.7512C101.967 25.5046 101.926 25.1808 101.875 24.78C101.824 24.3791 101.772 23.9372 101.721 23.4541C101.68 22.971 101.644 22.4726 101.613 21.9587C101.582 21.4345 101.567 20.9257 101.567 20.4324C101.567 19.9904 101.582 19.5639 101.613 19.1528C101.654 18.7416 101.695 18.3254 101.736 17.904C101.757 17.6882 101.772 17.5134 101.782 17.3798C101.793 17.2462 101.808 17.0715 101.829 16.8556C101.623 17.1845 101.418 17.57 101.212 18.0119C101.006 18.4539 100.811 18.9164 100.626 19.3994C100.441 19.8722 100.272 20.3347 100.117 20.787C99.9735 21.2392 99.8604 21.6349 99.7782 21.9741L99.6857 22.3132C99.6343 22.4777 99.588 22.6421 99.5469 22.8066C99.5161 22.971 99.5007 23.1252 99.5007 23.2691C99.5007 23.4541 99.511 23.6699 99.5315 23.9166C99.5521 24.153 99.5778 24.3791 99.6086 24.595C99.6394 24.8519 99.6754 25.114 99.7165 25.3812C99.7165 25.4018 99.7268 25.4686 99.7473 25.5816C99.7679 25.6947 99.7885 25.8283 99.809 25.9825C99.8296 26.1366 99.845 26.3011 99.8553 26.4758C99.8758 26.6403 99.8861 26.7893 99.8861 26.9229Z" fill="white"/>
<defs>
<clipPath id="clip0_111_622">
<rect width="32.386" height="32.386" fill="white" transform="translate(30.1602 4.80698)"/>
</clipPath>
</defs>
</svg>
