<svg width="75" height="75" viewBox="0 0 75 75" fill="none" xmlns="http://www.w3.org/2000/svg">
<rect x="0.172363" width="74.3689" height="74.3689" rx="17.5756" fill="#140859"/>
<rect x="1.17236" y="1" width="72.3689" height="72.3689" rx="16.5756" stroke="white" stroke-opacity="0.25" stroke-width="2"/>
<path d="M31.3542 30.9964V48.662C31.3541 49.4321 31.1515 50.1886 30.7667 50.8556C30.382 51.5227 29.8286 52.0769 29.1621 52.4627C28.4956 52.8484 27.7394 53.0521 26.9694 53.0534C26.1993 53.0547 25.4424 52.8536 24.7746 52.4701L21.3311 50.4936C20.3676 49.9049 19.5715 49.0785 19.0192 48.0936C18.467 47.1087 18.1771 45.9984 18.1775 44.8693V30.2981C18.1775 29.1693 18.4675 28.0595 19.0198 27.075C19.572 26.0905 20.3679 25.2645 21.3311 24.676L34.5078 16.6228C35.5421 15.991 36.7306 15.6567 37.9425 15.6567C39.1545 15.6567 40.343 15.991 41.3773 16.6228L54.554 24.676C55.5175 25.2647 56.3136 26.0911 56.8659 27.076C57.4181 28.0608 57.708 29.1711 57.7076 30.3003V44.8693C57.7076 45.9981 57.4175 47.1079 56.8653 48.0924C56.3131 49.0768 55.5172 49.9029 54.554 50.4914L41.3773 58.5445C40.343 59.1764 39.1545 59.5107 37.9425 59.5107C36.7306 59.5107 35.5421 59.1764 34.5078 58.5445" stroke="white" stroke-width="4.93058" stroke-linecap="round" stroke-linejoin="round"/>
<path d="M48.923 30.9964H41.2366C40.3629 30.9964 39.525 31.3434 38.9072 31.9612C38.2894 32.579 37.9424 33.4169 37.9424 34.2906C37.9424 35.1642 38.2894 36.0021 38.9072 36.6199C39.525 37.2377 40.3629 37.5847 41.2366 37.5847H45.6288C46.5025 37.5847 47.3403 37.9318 47.9581 38.5496C48.5759 39.1674 48.923 40.0052 48.923 40.8789C48.923 41.7526 48.5759 42.5905 47.9581 43.2082C47.3403 43.826 46.5025 44.1731 45.6288 44.1731H37.9424" stroke="white" stroke-width="4.93058" stroke-linecap="round" stroke-linejoin="round"/>
</svg>
