<svg width="96" height="169" viewBox="0 0 96 169" fill="none" xmlns="http://www.w3.org/2000/svg">
<rect width="96" height="169" rx="4" fill="url(#paint0_linear_150_547)"/>
<path d="M35.908 107.512C34.4573 107.512 32.8787 107.448 31.172 107.32C29.4653 107.235 27.78 107.085 26.116 106.872C24.4947 106.616 23.044 106.381 21.764 106.168V98.168C23.3 98.296 24.8787 98.424 26.5 98.552C28.1213 98.68 29.6573 98.7867 31.108 98.872C32.6013 98.9147 33.86 98.936 34.884 98.936C36.804 98.936 38.3187 98.872 39.428 98.744C40.58 98.5733 41.3907 98.1467 41.86 97.464C42.372 96.7813 42.628 95.672 42.628 94.136C42.628 92.6853 42.4573 91.5973 42.116 90.872C41.7747 90.104 41.1773 89.592 40.324 89.336C39.4707 89.08 38.276 88.952 36.74 88.952H29.38V80.504H36.74C38.1053 80.504 39.172 80.3973 39.94 80.184C40.7507 79.928 41.3267 79.48 41.668 78.84C42.052 78.1573 42.244 77.1333 42.244 75.768C42.244 74.232 42.0307 73.144 41.604 72.504C41.1773 71.8213 40.388 71.416 39.236 71.288C38.084 71.1173 36.42 71.032 34.244 71.032C33.0067 71.032 31.6413 71.0747 30.148 71.16C28.6973 71.2453 27.2467 71.352 25.796 71.48C24.388 71.5653 23.1293 71.6933 22.02 71.864V63.8C23.2573 63.544 24.6867 63.3093 26.308 63.096C27.972 62.8827 29.636 62.7333 31.3 62.648C33.0067 62.52 34.564 62.456 35.972 62.456C39.3427 62.456 42.1373 62.712 44.356 63.224C46.6173 63.736 48.4093 64.4827 49.732 65.464C51.0547 66.4453 51.9933 67.6613 52.548 69.112C53.1453 70.52 53.444 72.1627 53.444 74.04C53.444 77.24 52.804 79.6293 51.524 81.208C50.244 82.7867 48.3453 83.8533 45.828 84.408V84.664C47.5347 85.048 48.9853 85.6027 50.18 86.328C51.3747 87.0533 52.2707 88.12 52.868 89.528C53.508 90.936 53.828 92.8347 53.828 95.224C53.828 97.0587 53.572 98.744 53.06 100.28C52.5907 101.773 51.716 103.075 50.436 104.184C49.156 105.251 47.3427 106.083 44.996 106.68C42.6493 107.235 39.62 107.512 35.908 107.512ZM61.5335 107V97.72H72.4775V107H61.5335Z" fill="#000C1F"/>
<defs>
<linearGradient id="paint0_linear_150_547" x1="48" y1="0" x2="48" y2="169" gradientUnits="userSpaceOnUse">
<stop stop-color="#FB4F1F"/>
<stop offset="1" stop-color="#FB4F1F" stop-opacity="0"/>
</linearGradient>
</defs>
</svg>
