<svg width="96" height="169" viewBox="0 0 96 169" fill="none" xmlns="http://www.w3.org/2000/svg">
<rect width="96" height="169" rx="4" fill="url(#paint0_linear_150_541)"/>
<path d="M21.892 107V100.92C21.892 98.488 21.956 96.3973 22.084 94.648C22.212 92.8987 22.4893 91.4053 22.916 90.168C23.3853 88.9307 24.1107 87.8853 25.092 87.032C26.0733 86.136 27.4173 85.3253 29.124 84.6L38.852 80.696C40.0893 80.184 41.0067 79.736 41.604 79.352C42.2013 78.9253 42.5853 78.4133 42.756 77.816C42.9267 77.2187 43.012 76.3867 43.012 75.32C43.012 73.9973 42.7987 73.0373 42.372 72.44C41.9453 71.8 41.1773 71.416 40.068 71.288C38.9587 71.1173 37.4013 71.032 35.396 71.032C34.4573 71.032 33.284 71.0747 31.876 71.16C30.5107 71.2453 29.0387 71.352 27.46 71.48C25.8813 71.608 24.324 71.7573 22.788 71.928V63.864C24.196 63.608 25.796 63.3733 27.588 63.16C29.38 62.9467 31.2147 62.776 33.092 62.648C35.012 62.52 36.7827 62.456 38.404 62.456C40.5373 62.456 42.5427 62.6053 44.42 62.904C46.34 63.16 48.0253 63.6933 49.476 64.504C50.9267 65.3147 52.0573 66.5307 52.868 68.152C53.7213 69.7733 54.148 71.9493 54.148 74.68C54.148 77.4107 53.8493 79.608 53.252 81.272C52.6973 82.936 51.8653 84.2587 50.756 85.24C49.6467 86.2213 48.3027 87.032 46.724 87.672L35.716 91.96C34.8627 92.3013 34.2013 92.664 33.732 93.048C33.3053 93.3893 33.0067 93.8587 32.836 94.456C32.6653 95.0107 32.58 95.7573 32.58 96.696V98.36H54.148V107H21.892ZM61.7835 107V97.72H72.7275V107H61.7835Z" fill="#000C1F"/>
<defs>
<linearGradient id="paint0_linear_150_541" x1="48" y1="0" x2="48" y2="169" gradientUnits="userSpaceOnUse">
<stop stop-color="#FB4F1F"/>
<stop offset="1" stop-color="#FB4F1F" stop-opacity="0"/>
</linearGradient>
</defs>
</svg>
