<svg width="24" height="24" viewBox="0 0 24 24" fill="none" xmlns="http://www.w3.org/2000/svg">
<path d="M13.0391 3.582C12.4391 3.269 11.6161 3.264 11.0121 3.576C8.43411 4.908 6.09711 6.434 4.05211 8.124C3.77811 8.35 3.59811 8.665 3.60111 9.026C3.60411 9.386 3.78911 9.697 4.06111 9.92C6.09011 11.58 8.42911 13.107 10.9611 14.428C11.5611 14.741 12.3841 14.746 12.9881 14.434C15.5661 13.102 17.9031 11.576 19.9481 9.886C20.2221 9.66 20.4021 9.345 20.3991 8.984C20.3961 8.624 20.2111 8.313 19.9391 8.09C17.9101 6.43 15.5711 4.903 13.0391 3.582Z" fill="#FB4F1F"/>
<path d="M20.958 13.731C21.0444 13.6802 21.1197 13.6127 21.1795 13.5323C21.2393 13.452 21.2824 13.3605 21.3063 13.2632C21.3301 13.1659 21.3343 13.0648 21.3185 12.9659C21.3026 12.867 21.2671 12.7723 21.2141 12.6873C21.1611 12.6024 21.0915 12.5289 21.0096 12.4712C20.9277 12.4136 20.8351 12.3729 20.7372 12.3516C20.6394 12.3303 20.5382 12.3289 20.4398 12.3473C20.3413 12.3657 20.2476 12.4037 20.164 12.459L14.056 16.272C13.512 16.612 12.773 16.801 12 16.801C11.227 16.801 10.487 16.611 9.94302 16.272L3.90302 12.502C3.73421 12.3967 3.53049 12.3628 3.33667 12.4077C3.14285 12.4526 2.97481 12.5727 2.86952 12.7415C2.76423 12.9103 2.73031 13.114 2.77523 13.3078C2.82014 13.5017 2.94021 13.6697 3.10902 13.775L9.14902 17.545C9.97802 18.062 11.006 18.301 11.999 18.301C12.994 18.301 14.022 18.061 14.851 17.544L20.958 13.731Z" fill="#FB4F1F"/>
<path d="M20.9581 17.486C21.0444 17.4352 21.1197 17.3677 21.1795 17.2873C21.2393 17.207 21.2824 17.1155 21.3063 17.0182C21.3302 16.9209 21.3343 16.8199 21.3185 16.7209C21.3027 16.622 21.2672 16.5273 21.2141 16.4423C21.1611 16.3574 21.0916 16.2839 21.0097 16.2262C20.9278 16.1686 20.8352 16.1279 20.7373 16.1066C20.6394 16.0853 20.5382 16.0839 20.4398 16.1023C20.3413 16.1208 20.2476 16.1587 20.1641 16.214L14.8741 19.517C14.1021 19.999 13.0681 20.26 12.0001 20.26C10.9321 20.26 9.89805 20 9.12505 19.517L3.90305 16.257C3.81947 16.2048 3.72642 16.1696 3.62922 16.1533C3.53202 16.1371 3.43257 16.1402 3.33655 16.1624C3.24054 16.1845 3.14983 16.2254 3.06962 16.2827C2.98941 16.3399 2.92125 16.4124 2.86905 16.496C2.81685 16.5796 2.78163 16.6726 2.76539 16.7698C2.74915 16.867 2.75221 16.9665 2.7744 17.0625C2.7966 17.1585 2.83748 17.2492 2.89473 17.3294C2.95198 17.4096 3.02447 17.4778 3.10805 17.53L8.33005 20.79C9.38805 21.45 10.7111 21.76 12.0001 21.76C13.2891 21.76 14.6111 21.45 15.6701 20.789L20.9581 17.486Z" fill="#FB4F1F"/>
</svg>
