<svg width="170" height="180" viewBox="0 0 170 180" fill="none" xmlns="http://www.w3.org/2000/svg">
<path opacity="0.1" d="M159.078 33.6158H7.88946C4.75003 33.6158 2.20483 36.161 2.20483 39.3005V158.399C2.20483 161.539 4.75003 164.084 7.88946 164.084H29.3702V173.16C29.3702 175.253 31.0668 176.95 33.1599 176.95H133.808C135.901 176.95 137.598 175.253 137.598 173.16V164.084H159.078C162.218 164.084 164.763 161.539 164.763 158.399V39.3005C164.762 36.161 162.218 33.6158 159.078 33.6158Z" fill="#2626BC"/>
<path d="M159.078 154.989H7.88946C4.75003 154.989 2.20483 152.443 2.20483 149.304V30.205C2.20483 27.0656 4.75003 24.5204 7.88946 24.5204H159.078C162.217 24.5204 164.762 27.0656 164.762 30.205V149.304C164.762 152.444 162.218 154.989 159.078 154.989Z" fill="white"/>
<path d="M146.277 115.831H20.6899C18.5968 115.831 16.9001 114.134 16.9001 112.041V70.6766C16.9001 68.5835 18.5968 66.8868 20.6899 66.8868H146.277C148.37 66.8868 150.067 68.5835 150.067 70.6766V112.041C150.067 114.134 148.37 115.831 146.277 115.831Z" fill="#6583FE"/>
<path d="M164.762 50.7883V30.205C164.762 27.0656 162.217 24.5204 159.078 24.5204H7.88946C4.75003 24.5204 2.20483 27.0656 2.20483 30.205V50.7883H164.762Z" fill="#6583FE"/>
<path d="M18.9151 42.6361C21.1967 42.6361 23.0464 40.7865 23.0464 38.5049C23.0464 36.2233 21.1967 34.3737 18.9151 34.3737C16.6335 34.3737 14.7839 36.2233 14.7839 38.5049C14.7839 40.7865 16.6335 42.6361 18.9151 42.6361Z" fill="white"/>
<path d="M32.1036 42.6361C34.3852 42.6361 36.2348 40.7865 36.2348 38.5049C36.2348 36.2233 34.3852 34.3737 32.1036 34.3737C29.822 34.3737 27.9724 36.2233 27.9724 38.5049C27.9724 40.7865 29.822 42.6361 32.1036 42.6361Z" fill="white"/>
<path d="M45.2923 42.6361C47.5739 42.6361 49.4236 40.7865 49.4236 38.5049C49.4236 36.2233 47.5739 34.3737 45.2923 34.3737C43.0107 34.3737 41.1611 36.2233 41.1611 38.5049C41.1611 40.7865 43.0107 42.6361 45.2923 42.6361Z" fill="white"/>
<path d="M150.289 43.1462H98.6877V33.8632H150.289C151.335 33.8632 152.184 34.7117 152.184 35.758V41.2517C152.184 42.298 151.335 43.1462 150.289 43.1462Z" fill="white"/>
<path d="M98.9416 33.9811C96.9384 31.9778 93.6788 31.9778 91.6755 33.9811C89.6723 35.9843 89.6723 39.2439 91.6755 41.2472C93.2055 42.7771 95.4664 43.1345 97.3424 42.328L98.9901 43.9758C99.7303 44.7156 100.93 44.7156 101.67 43.9758C102.41 43.236 102.41 42.0358 101.67 41.2961L100.022 39.6483C100.829 37.772 100.472 35.511 98.9416 33.9811ZM94.3553 36.6608C94.8809 36.1352 95.7363 36.1352 96.2619 36.6608C96.7875 37.1865 96.7875 38.0418 96.2619 38.5674C95.7363 39.0931 94.8809 39.0931 94.3553 38.5674C93.8296 38.0418 93.8296 37.1865 94.3553 36.6608Z" fill="#2626BC"/>
<path d="M133.808 167.855H33.1594C31.0663 167.855 29.3696 166.158 29.3696 164.065V89.7403C29.3696 87.6472 31.0663 85.9506 33.1594 85.9506H133.808C135.901 85.9506 137.597 87.6472 137.597 89.7403V164.065C137.597 166.158 135.901 167.855 133.808 167.855Z" fill="white"/>
<path d="M137.597 101.304H29.3696V89.7403C29.3696 87.6472 31.0663 85.9506 33.1594 85.9506H133.808C135.901 85.9506 137.597 87.6472 137.597 89.7403V101.304Z" fill="#6583FE"/>
<path d="M159.079 22.6256H7.88956C3.71022 22.6256 0.310059 26.0258 0.310059 30.2051V149.304C0.310059 153.483 3.71022 156.884 7.88956 156.884H27.4754V164.065C27.4754 167.2 30.0255 169.749 33.16 169.749H133.808C136.943 169.749 139.493 167.2 139.493 164.065V156.884H159.079C163.258 156.884 166.658 153.483 166.658 149.304V30.2051C166.658 26.0258 163.258 22.6256 159.079 22.6256ZM135.703 164.065C135.703 165.11 134.853 165.96 133.808 165.96H33.16C32.1152 165.96 31.2651 165.11 31.2651 164.065V89.7402C31.2651 88.6954 32.1152 87.8454 33.16 87.8454H133.808C134.853 87.8454 135.703 88.6954 135.703 89.7402V164.065ZM162.868 149.304C162.868 151.394 161.168 153.094 159.079 153.094H139.493V89.7402C139.493 86.6057 136.943 84.0556 133.808 84.0556H33.16C30.0255 84.0556 27.4754 86.6057 27.4754 89.7402V153.094H7.88956C5.79989 153.094 4.09981 151.394 4.09981 149.304V30.2051C4.09981 28.1154 5.79989 26.4154 7.88956 26.4154H159.078C161.168 26.4154 162.868 28.1154 162.868 30.2051V149.304H162.868Z" fill="#2626BC"/>
<path d="M72.7584 142.983H53.8752C51.7821 142.983 50.0854 141.287 50.0854 139.194V131.127C50.0854 129.034 51.7821 127.337 53.8752 127.337H72.7584C74.8515 127.337 76.5482 129.034 76.5482 131.127V139.194C76.5482 141.287 74.8515 142.983 72.7584 142.983Z" fill="#6583FE"/>
<path d="M113.093 142.983H94.2094C92.1163 142.983 90.4197 141.287 90.4197 139.194V131.127C90.4197 129.034 92.1163 127.337 94.2094 127.337H113.093C115.186 127.337 116.882 129.034 116.882 131.127V139.194C116.882 141.287 115.186 142.983 113.093 142.983Z" fill="#6583FE"/>
<path d="M119.472 137.722L109.445 136.823C108.532 136.742 107.768 137.506 107.849 138.42L108.747 148.447C108.859 149.69 110.37 150.238 111.252 149.355L113.299 147.308L120.03 154.039C120.604 154.613 121.536 154.613 122.11 154.039L125.064 151.084C125.639 150.51 125.639 149.579 125.064 149.004L118.334 142.274L120.381 140.227C121.263 139.344 120.715 137.833 119.472 137.722Z" fill="white"/>
<path d="M121.07 156.363C120.208 156.363 119.346 156.035 118.691 155.378L113.3 149.987L112.592 150.695C111.658 151.629 110.306 151.929 109.065 151.479C107.823 151.028 106.978 149.931 106.86 148.615L105.962 138.588C105.873 137.592 106.227 136.615 106.934 135.908C107.641 135.201 108.613 134.847 109.615 134.936L119.641 135.834C120.957 135.952 122.054 136.796 122.505 138.038C122.956 139.28 122.655 140.632 121.721 141.566L121.014 142.273L126.405 147.664C127.717 148.976 127.717 151.112 126.405 152.424L123.45 155.378C122.794 156.035 121.932 156.363 121.07 156.363ZM113.3 145.413C113.802 145.413 114.284 145.612 114.639 145.968L121.07 152.399L123.425 150.044L116.994 143.613C116.638 143.258 116.439 142.776 116.439 142.274C116.439 141.771 116.638 141.289 116.994 140.934L118.4 139.528L109.782 138.756L110.554 147.374L111.96 145.968C112.315 145.613 112.797 145.413 113.3 145.413Z" fill="#2626BC"/>
<path d="M115.148 117.726H110.721C109.675 117.726 108.826 116.877 108.826 115.831C108.826 114.784 109.675 113.936 110.721 113.936H115.148C116.194 113.936 117.043 114.784 117.043 115.831C117.043 116.877 116.195 117.726 115.148 117.726Z" fill="#2626BC"/>
<path d="M115.148 123.594H107.31C106.264 123.594 105.415 122.746 105.415 121.7C105.415 120.653 106.264 119.805 107.31 119.805H115.148C116.194 119.805 117.043 120.653 117.043 121.7C117.043 122.746 116.194 123.594 115.148 123.594Z" fill="#2626BC"/>
<path d="M74.6532 117.726H70.2264C69.1801 117.726 68.3315 116.877 68.3315 115.831C68.3315 114.784 69.1801 113.936 70.2264 113.936H74.6532C75.6996 113.936 76.5481 114.784 76.5481 115.831C76.5481 116.877 75.6996 117.726 74.6532 117.726Z" fill="#2626BC"/>
<path d="M74.6534 123.594H66.8158C65.7694 123.594 64.9209 122.746 64.9209 121.7C64.9209 120.653 65.7694 119.805 66.8158 119.805H74.6534C75.6997 119.805 76.5482 120.653 76.5482 121.7C76.5482 122.746 75.6997 123.594 74.6534 123.594Z" fill="#2626BC"/>
<path d="M19.4989 15.8053C16.5126 15.8053 14.083 13.3757 14.083 10.3893C14.083 7.40263 16.5126 4.97302 19.4989 4.97302C22.4856 4.97302 24.9153 7.40263 24.9153 10.3893C24.9153 13.3757 22.4856 15.8053 19.4989 15.8053ZM19.4989 8.76277C18.6023 8.76277 17.8728 9.49268 17.8728 10.3893C17.8728 11.286 18.6023 12.0155 19.4989 12.0155C20.3956 12.0155 21.1255 11.286 21.1255 10.3893C21.1255 9.49268 20.3956 8.76277 19.4989 8.76277Z" fill="#6583FE"/>
<path d="M36.7555 12.3945C35.7088 12.3945 34.8606 11.5464 34.8606 10.4997C34.8606 9.24564 33.8408 8.22581 32.5868 8.22581C31.54 8.22581 30.6919 7.37767 30.6919 6.33094C30.6919 5.28421 31.54 4.43606 32.5868 4.43606C33.8408 4.43606 34.8606 3.41624 34.8606 2.16221C34.8606 1.11548 35.7088 0.267334 36.7555 0.267334C37.8022 0.267334 38.6504 1.11548 38.6504 2.16221C38.6504 3.41624 39.6702 4.43606 40.9242 4.43606C41.971 4.43606 42.8191 5.28421 42.8191 6.33094C42.8191 7.37767 41.971 8.22581 40.9242 8.22581C39.6702 8.22581 38.6504 9.24564 38.6504 10.4997C38.6504 11.5464 37.8022 12.3945 36.7555 12.3945Z" fill="#6583FE"/>
<path d="M148.93 180C147.884 180 147.035 179.152 147.035 178.105C147.035 176.851 146.016 175.831 144.762 175.831C143.715 175.831 142.867 174.983 142.867 173.936C142.867 172.89 143.715 172.042 144.762 172.042C146.016 172.042 147.035 171.022 147.035 169.768C147.035 168.721 147.884 167.873 148.93 167.873C149.977 167.873 150.825 168.721 150.825 169.768C150.825 171.022 151.845 172.042 153.099 172.042C154.146 172.042 154.994 172.89 154.994 173.936C154.994 174.983 154.146 175.831 153.099 175.831C151.845 175.831 150.825 176.851 150.825 178.105C150.825 179.152 149.977 180 148.93 180Z" fill="#6583FE"/>
<path d="M118.076 13.0421C117.029 13.0421 116.181 12.194 116.181 11.1472C116.181 9.89322 115.161 8.8734 113.907 8.8734C112.86 8.8734 112.012 8.02525 112.012 6.97852C112.012 5.93179 112.86 5.08364 113.907 5.08364C115.161 5.08364 116.181 4.06382 116.181 2.80979C116.181 1.76306 117.029 0.914917 118.076 0.914917C119.122 0.914917 119.97 1.76306 119.97 2.80979C119.97 4.06382 120.99 5.08364 122.244 5.08364C123.291 5.08364 124.139 5.93179 124.139 6.97852C124.139 8.02525 123.291 8.8734 122.244 8.8734C120.99 8.8734 119.97 9.89322 119.97 11.1472C119.97 12.194 119.122 13.0421 118.076 13.0421Z" fill="#6583FE"/>
<path d="M163.626 171.394C162.579 171.394 161.731 170.546 161.731 169.499C161.731 168.245 160.711 167.225 159.457 167.225C158.411 167.225 157.562 166.377 157.562 165.33C157.562 164.283 158.411 163.435 159.457 163.435C160.711 163.435 161.731 162.416 161.731 161.161C161.731 160.115 162.579 159.267 163.626 159.267C164.673 159.267 165.521 160.115 165.521 161.161C165.521 162.416 166.541 163.435 167.795 163.435C168.842 163.435 169.69 164.283 169.69 165.33C169.69 166.377 168.842 167.225 167.795 167.225C166.541 167.225 165.521 168.245 165.521 169.499C165.521 170.546 164.672 171.394 163.626 171.394Z" fill="#6583FE"/>
</svg>
